<?xml version="1.0" encoding="UTF-8"?>
<!DOCTYPE svg PUBLIC "-//W3C//DTD SVG 1.1//EN" "http://www.w3.org/Graphics/SVG/1.1/DTD/svg11.dtd">
<!-- Creator: CorelDRAW -->
<svg xmlns="http://www.w3.org/2000/svg" xml:space="preserve" width="15in" height="15in" version="1.1" style="shape-rendering:geometricPrecision; text-rendering:geometricPrecision; image-rendering:optimizeQuality; fill-rule:evenodd; clip-rule:evenodd"
viewBox="0 0 15000 15000"
 xmlns:xlink="http://www.w3.org/1999/xlink"
 xmlns:xodm="http://www.corel.com/coreldraw/odm/2003">
 <defs>
  <style type="text/css">
   <![CDATA[
    .fil3 {fill:#626363;fill-rule:nonzero}
    .fil0 {fill:#767677;fill-rule:nonzero}
    .fil2 {fill:#9E9E9E;fill-rule:nonzero}
    .fil1 {fill:#EE7628;fill-rule:nonzero}
   ]]>
  </style>
 </defs>
 <g id="Layer_x0020_1">
  <metadata id="CorelCorpID_0Corel-Layer"/>
  <path class="fil0" d="M11249.49 2839.42c21.46,349.32 -244.19,650.06 -593.67,671.52 -349.31,21.46 -650.06,-244.19 -671.51,-593.67 -21.46,-349.32 244.19,-650.06 593.67,-671.52 3.83,-0.16 7.65,-0.5 11.48,-0.67 345.33,-19.13 640.75,245.35 659.87,590.84 0.17,1.16 0.17,2.33 0.17,3.5z"/>
  <path class="fil1" d="M7553.07 10160.4c-1682.37,0 -3160.97,-603.49 -3925.64,-1495.57 802.26,2168.08 3210.04,3275.25 5378.13,2472.98 1145.76,-424 2049.15,-1327.23 2472.99,-2472.98 -762.51,891.91 -2235.62,1495.57 -3925.47,1495.57l0 0zm0 -5798.14c1682.37,0 3161.31,603.48 3925.64,1495.57 -801.6,-2168.08 -3209.04,-3275.75 -5377.13,-2473.98 -1146.42,423.83 -2050.15,1327.73 -2473.99,2473.98 764.5,-893.92 2235.62,-1495.57 3925.47,-1495.57z"/>
  <path class="fil2" d="M5236.94 11895.67c27.61,440.14 -306.73,819.22 -746.87,846.83 -440.14,27.61 -819.22,-306.73 -846.83,-746.87 -27.61,-440.14 306.73,-819.22 746.87,-846.83 4.99,-0.33 9.98,-0.5 14.97,-0.83 436.15,-23.12 808.58,311.55 831.87,747.7z"/>
  <path class="fil3" d="M3818.72 4159c-253.83,7.16 -465.42,-192.96 -472.57,-446.79 -7.16,-253.83 192.96,-465.42 446.79,-472.57 251.51,-6.98 462.09,189.3 472.41,440.81 7.49,255 -191.79,468.41 -446.63,478.56z"/>
 </g>
</svg>
