<?xml version="1.0" encoding="UTF-8"?>
<!DOCTYPE svg PUBLIC "-//W3C//DTD SVG 1.1//EN" "http://www.w3.org/Graphics/SVG/1.1/DTD/svg11.dtd">
<!-- Creator: CorelDRAW -->
<svg xmlns="http://www.w3.org/2000/svg" xml:space="preserve" width="15in" height="15in" version="1.1" style="shape-rendering:geometricPrecision; text-rendering:geometricPrecision; image-rendering:optimizeQuality; fill-rule:evenodd; clip-rule:evenodd"
viewBox="0 0 15000 15000"
 xmlns:xlink="http://www.w3.org/1999/xlink"
 xmlns:xodm="http://www.corel.com/coreldraw/odm/2003">
 <defs>
  <style type="text/css">
   <![CDATA[
    .str0 {stroke:white;stroke-width:8.21;stroke-miterlimit:2.61313}
    .fil0 {fill:#75AADB;fill-rule:nonzero}
    .fil1 {fill:white;fill-rule:nonzero}
   ]]>
  </style>
 </defs>
 <g id="Layer_x0020_1">
  <metadata id="CorelCorpID_0Corel-Layer"/>
  <path class="fil0" d="M8107.03 5432.81c-123.06,-49.23 -319.93,-82.04 -566.01,-90.22 -344.55,-8.22 -738.3,32.8 -754.7,41.02l0 1640.64c1091.03,49.23 1271.47,-139.46 1271.47,-139.46 951.57,-483.97 352.73,-1328.93 49.24,-1451.95l0 -0.03 0 0z"/>
  <path class="fil0" d="M7500 2250c-2903.93,0 -5250,2346.07 -5250,5250 0,2903.93 2346.1,5250 5250,5250 2903.9,0 5250,-2346.1 5250,-5250 0,-2903.9 -2354.29,-5250 -5250,-5250zm2346.1 7366.43l-869.54 0 -1443.76 -2157.44 -738.27 0 0 1681.66 738.27 0 0 475.79 -1878.5 0 0 -467.57 623.43 -8.22 -8.22 -3765.25c-65.63,-16.4 -615.24,-65.64 -615.24,-65.64l0.03 -434.77c82.04,82.04 648.05,98.44 648.05,98.44 131.24,8.22 319.93,16.4 426.55,-8.22 762.89,-139.45 1345.33,-32.8 1345.33,-32.8 1148.45,262.51 1164.85,1296.09 844.92,1853.91 -287.1,475.79 -844.92,590.63 -844.92,590.63l1181.25 1788.28 590.63 -8.22 0 459.39 0 0.03 -0.02 0z"/>
  <path class="fil1 str0" d="M5662.08 9392.7l0 -223.63 149.28 -11.57 158.43 0.03 0 -3790.67 -76.95 -10.42c-42.32,-5.74 -180.78,-20.34 -307.78,-32.56l-230.76 -22.13 0 -205.9c0,-191.3 2.2,-204.66 32,-188.66 129.84,69.48 877.72,87.77 1298.57,31.84 344.7,-45.76 942.96,-34.85 1151.3,21.08 449.78,120.76 747.32,381.13 887.92,777.08 58.81,165.53 67.03,479.63 17.74,674.62 -74.07,293.02 -196.07,496.13 -399.08,664.54 -121.57,100.89 -397.6,248.56 -504.09,269.89 -32.56,6.48 -63.34,18.39 -68.24,26.32 -4.93,8.03 256.19,416.07 580.36,906.77l589.33 892.17 298.01 -5.58 298.11 -5.58 -0.03 456.07 -430 -0.65 -429.84 -0.59 -723.51 -1085.6 -723.26 -1085.61 -752.93 0 0 1701.65 742.3 0 0 470.8 -1556.87 0 0 -223.72 -0.01 0.02zm2063.75 -2392.17c285.14,-45.11 595.96,-227.57 736.06,-431.73 205.99,-300.49 126.09,-737.46 -188.19,-1029.24 -111.3,-103.37 -180.88,-133.72 -393.26,-172.26 -174.24,-31.65 -710.39,-37.23 -960.26,-10.01l-126.65 13.8 -4.74 827.13 -4.68 827.03 59.06 8.68c112.05,16.4 711.2,-6.14 882.65,-33.39l0.01 -0.01z"/>
 </g>
</svg>
