<?xml version="1.0" encoding="UTF-8"?>
<!DOCTYPE svg PUBLIC "-//W3C//DTD SVG 1.1//EN" "http://www.w3.org/Graphics/SVG/1.1/DTD/svg11.dtd">
<!-- Creator: CorelDRAW -->
<svg xmlns="http://www.w3.org/2000/svg" xml:space="preserve" width="15in" height="15in" version="1.1" style="shape-rendering:geometricPrecision; text-rendering:geometricPrecision; image-rendering:optimizeQuality; fill-rule:evenodd; clip-rule:evenodd"
viewBox="0 0 15000 15000"
 xmlns:xlink="http://www.w3.org/1999/xlink"
 xmlns:xodm="http://www.corel.com/coreldraw/odm/2003">
 <defs>
  <style type="text/css">
   <![CDATA[
    .fil5 {fill:#1F457E}
    .fil2 {fill:#5B879B;fill-rule:nonzero}
    .fil3 {fill:#5C6692;fill-rule:nonzero}
    .fil6 {fill:#7199A6;fill-rule:nonzero}
    .fil1 {fill:#C72037;fill-rule:nonzero}
    .fil0 {fill:#E8762D;fill-rule:nonzero}
    .fil4 {fill:#EB9129;fill-rule:nonzero}
   ]]>
  </style>
 </defs>
 <g id="Layer_x0020_1">
  <metadata id="CorelCorpID_0Corel-Layer"/>
  <polygon class="fil0" points="7212.69,9319.65 7787.31,9319.65 7787.31,7752.49 9232.59,7752.49 9232.59,7195.27 7787.31,7195.27 7787.31,5628.11 7212.69,5628.11 7212.69,7195.27 5784.83,7195.27 5784.83,7752.49 7212.69,7752.49 "/>
  <polygon class="fil1" points="4548.51,11583.33 5036.07,11583.33 5036.07,10190.3 6324.63,10190.3 6324.63,9754.98 5036.07,9754.98 5036.07,8344.53 4548.51,8344.53 4548.51,9754.98 3259.95,9754.98 3259.95,10190.3 4548.51,10190.3 "/>
  <polygon class="fil2" points="9963.93,6551 10451.49,6551 10451.49,5157.96 11757.46,5157.96 11757.46,4740.05 10451.49,4740.05 10451.49,3329.6 9963.93,3329.6 9963.93,4740.05 8675.37,4740.05 8675.37,5157.96 9963.93,5157.96 "/>
  <polygon class="fil3" points="7299.75,12680.35 7717.66,12680.35 7717.66,11687.81 8605.72,11687.81 8605.72,11322.14 7717.66,11322.14 7717.66,10329.6 7299.75,10329.6 7299.75,11322.14 6429.1,11322.14 6429.1,11687.81 7299.75,11687.81 "/>
  <polygon class="fil4" points="4565.92,6551 5018.66,6551 5018.66,5140.55 6324.63,5140.55 6324.63,4740.05 5018.66,4740.05 5018.66,3329.6 4565.92,3329.6 4565.92,4740.05 3259.95,4740.05 3259.95,5140.55 4565.92,5140.55 "/>
  <polygon class="fil3" points="11444.03,8640.55 11861.94,8640.55 11861.94,7665.42 12750,7665.42 12750,7282.34 11861.94,7282.34 11861.94,6307.21 11444.03,6307.21 11444.03,7282.34 10573.38,7282.34 10573.38,7665.42 11444.03,7665.42 "/>
  <polygon class="fil5" points="9963.93,11583.33 10451.49,11583.33 10451.49,10190.3 11757.46,10190.3 11757.46,9754.98 10451.49,9754.98 10451.49,8344.53 9963.93,8344.53 9963.93,9754.98 8675.37,9754.98 8675.37,10190.3 9963.93,10190.3 "/>
  <path class="fil6" d="M8536.07 3573.38l0 -296.02 -870.65 0 0 -957.71 -313.43 0 0 957.71 -870.65 0 0 296.02 870.65 0 0 957.71 313.43 0 0 -957.71 870.65 0zm-5415.43 4997.52l313.44 0 0 -957.71 870.64 0 0 -296.02 -870.64 0 0 -940.3 -313.44 0 0 940.3 -870.65 0 0 313.43 870.65 -17.41 0 957.71z"/>
 </g>
</svg>
