<?xml version="1.0" encoding="UTF-8"?>
<!DOCTYPE svg PUBLIC "-//W3C//DTD SVG 1.1//EN" "http://www.w3.org/Graphics/SVG/1.1/DTD/svg11.dtd">
<!-- Creator: CorelDRAW -->
<svg xmlns="http://www.w3.org/2000/svg" xml:space="preserve" width="15in" height="15in" version="1.1" style="shape-rendering:geometricPrecision; text-rendering:geometricPrecision; image-rendering:optimizeQuality; fill-rule:evenodd; clip-rule:evenodd"
viewBox="0 0 15000 15000"
 xmlns:xlink="http://www.w3.org/1999/xlink"
 xmlns:xodm="http://www.corel.com/coreldraw/odm/2003">
 <defs>
  <style type="text/css">
   <![CDATA[
    .fil0 {fill:#222124;fill-rule:nonzero}
   ]]>
  </style>
 </defs>
 <g id="Layer_x0020_1">
  <metadata id="CorelCorpID_0Corel-Layer"/>
  <path class="fil0" d="M7499.99 2243.74c-2944.92,0 -5330.06,2385.15 -5330.06,5330.06 0,2504.91 1718.78,4583.86 4037.69,5169.94 -26.76,-66.68 -39.92,-160.13 -39.92,-253.12l0 -906.34 -666.37 0c-359.72,0 -693.14,-159.68 -839.66,-453.17 -173.28,-319.81 -200.05,-812.89 -639.61,-1119.54 -133.36,-106.6 -26.76,-213.2 119.76,-200.05 279.89,79.84 506.24,266.73 719.45,546.17 213.2,279.88 306.65,346.57 706.29,346.57 186.44,0 479.48,-13.16 746.21,-53.53 146.52,-373.34 399.64,-706.29 706.29,-865.96 -1785.46,-213.2 -2638.27,-1092.78 -2638.27,-2292.15 0,-519.85 226.36,-1012.94 599.69,-1439.34 -119.76,-413.25 -279.89,-1266.06 53.52,-1599.02 799.74,0 1279.22,519.85 1398.98,652.76 399.64,-133.37 839.65,-213.2 1292.37,-213.2 466.32,0 892.73,79.83 1292.37,213.2 119.75,-133.37 599.69,-652.76 1398.97,-652.76 319.81,319.8 173.29,1185.77 39.92,1599.01 373.33,413.26 586.53,919.5 586.53,1439.35 0,1199.38 -839.65,2078.95 -2611.5,2265.39 493.09,253.12 839.65,972.57 839.65,1505.57l0 1213.9c0,39.91 -13.15,79.83 -13.15,119.75 2078.5,-719.45 3570.92,-2691.34 3570.92,-5023.42 0,-2944.92 -2385.15,-5330.06 -5330.07,-5330.06l0 0 0 -0.02z"/>
 </g>
</svg>
