<?xml version="1.0" encoding="UTF-8"?>
<!DOCTYPE svg PUBLIC "-//W3C//DTD SVG 1.1//EN" "http://www.w3.org/Graphics/SVG/1.1/DTD/svg11.dtd">
<!-- Creator: CorelDRAW -->
<svg xmlns="http://www.w3.org/2000/svg" xml:space="preserve" width="15in" height="15in" version="1.1" style="shape-rendering:geometricPrecision; text-rendering:geometricPrecision; image-rendering:optimizeQuality; fill-rule:evenodd; clip-rule:evenodd"
viewBox="0 0 15000 15000"
 xmlns:xlink="http://www.w3.org/1999/xlink"
 xmlns:xodm="http://www.corel.com/coreldraw/odm/2003">
 <defs>
  <style type="text/css">
   <![CDATA[
    .fil2 {fill:#00B160;fill-rule:nonzero}
    .fil1 {fill:#4D80C1;fill-rule:nonzero}
    .fil3 {fill:#DC3638;fill-rule:nonzero}
    .fil0 {fill:#EF5048;fill-rule:nonzero}
    .fil4 {fill:#FCB830;fill-rule:nonzero}
   ]]>
  </style>
 </defs>
 <g id="katman_x0020_1">
  <metadata id="CorelCorpID_0Corel-Layer"/>
  <path class="fil0" d="M4636.51 4204.84c470.98,350.89 942.43,701.16 1412.83,1052.8 452.77,338.51 905.75,676.76 1355.31,1019.48 68.13,51.93 110.04,54.82 180.19,1.89 890.67,-672.3 1784.07,-1340.98 2676.99,-2010.3 29.44,-22.09 61.12,-41.22 91.76,-61.73 0.84,59.54 2.32,119.05 2.4,178.59 0.93,967.7 1.71,1935.38 2.48,2903.1 -2.1,6.4 -4.18,12.8 -6.21,19.25 -375.73,279 -752.2,556.96 -1126.97,837.24 -547.75,409.65 -1095.29,819.54 -1639.96,1233.21 -68.66,52.11 -110.48,51.12 -179.12,-0.71 -898.76,-678.48 -1800.16,-1353.46 -2701.09,-2029.06 -20.58,-15.43 -43.43,-27.86 -65.21,-41.7 -2.18,-6.56 -3.94,-13.21 -5.29,-19.98 0.63,-1027.35 1.25,-2054.71 1.91,-3082.08l0 0.01 -0.01 0 -0.01 -0.02z"/>
  <path class="fil1" d="M4634.59 7286.91c1.37,6.78 3.13,13.43 5.3,19.98 -1.22,420.67 -3.29,841.37 -3.55,1262.04 -0.57,889.91 -1.21,1779.82 1.5,2669.72 0.27,83.44 -15.65,115.07 -108.31,114.2 -513.72,-4.79 -1027.56,-0.74 -1541.34,-2.8 -418.4,-1.71 -736.47,-311.05 -736.88,-721.27 -1.63,-1686.74 -0.66,-3373.47 -0.49,-5060.21 0.02,-18.52 2.63,-37.04 3.97,-55.6 39.41,27.35 79.76,53.54 118.19,82.29 754,563.7 1507.8,1127.7 2261.62,1691.65l-0.01 0 0.01 -0z"/>
  <path class="fil2" d="M10352.25 7307.93c2.03,-6.45 4.13,-12.85 6.21,-19.24 184.91,-137.2 370.21,-273.93 554.69,-411.71 607.36,-453.6 1214.48,-907.58 1821.63,-1361.41 1.85,44.5 5.29,89.02 5.29,133.54 0.3,1641.65 0.3,3283.31 0.24,4924.99 -0.03,476.34 -297.45,775.4 -770.99,775.48 -495.04,0.06 -990.16,-4.01 -1485.11,3.07 -112.41,1.61 -130.93,-32.83 -130.62,-136.23 3.72,-1258.22 2.45,-2516.47 2.24,-3774.71 0,-44.59 -2.3,-89.17 -3.58,-133.74l0 -0.03 0 -0.01 -0 0z"/>
  <path class="fil3" d="M4634.59 7286.91c-753.82,-563.94 -1507.62,-1127.93 -2261.62,-1691.65 -38.43,-28.73 -78.78,-54.94 -118.19,-82.29 -0.21,-363.84 -28.31,-729.28 11,-1091.24 84.78,-780 974.86,-1199.87 1631.73,-769.08 256.67,168.32 493.27,367.19 739.01,552.18 -0.63,1027.36 -1.28,2054.73 -1.91,3082.08l-0.02 -0.01 0 0 -0 0.01z"/>
  <path class="fil4" d="M12734.79 5515.54c-607.18,453.84 -1214.3,907.81 -1821.63,1361.41 -184.48,137.78 -369.79,274.52 -554.69,411.72 -0.79,-967.72 -1.56,-1935.44 -2.48,-2903.13 -0.07,-59.54 -1.55,-119.06 -2.37,-178.58 245.82,-185.62 482.61,-385.05 739.3,-554.24 683.91,-450.73 1597.63,20.09 1643.68,848.11 18.75,337.16 -0.06,676.41 -1.76,1014.69l-0.04 0.02 -0.01 0z"/>
 </g>
</svg>
