<?xml version="1.0" encoding="UTF-8"?>
<!DOCTYPE svg PUBLIC "-//W3C//DTD SVG 1.1//EN" "http://www.w3.org/Graphics/SVG/1.1/DTD/svg11.dtd">
<!-- Creator: CorelDRAW -->
<svg xmlns="http://www.w3.org/2000/svg" xml:space="preserve" width="15in" height="15in" version="1.1" style="shape-rendering:geometricPrecision; text-rendering:geometricPrecision; image-rendering:optimizeQuality; fill-rule:evenodd; clip-rule:evenodd"
viewBox="0 0 15000 15000"
 xmlns:xlink="http://www.w3.org/1999/xlink"
 xmlns:xodm="http://www.corel.com/coreldraw/odm/2003">
 <defs>
  <style type="text/css">
   <![CDATA[
    .fil0 {fill:#2D6EAE}
   ]]>
  </style>
 </defs>
 <g id="Layer_x0020_1">
  <metadata id="CorelCorpID_0Corel-Layer"/>
  <path class="fil0" d="M12184.44 2218.36l-8947.91 0c-427.86,0 -791.74,338.45 -791.74,755.81l0 8988.24c0,417.33 238.47,755.81 666.4,755.81l8950.86 0c427.86,-1.52 882.74,-339.31 882.74,-755.81l0 -8988.24c0,-416.5 -332.32,-755.81 -760.19,-755.81l-0.17 0 0.01 0zm-5739.6 4000.04l1413.47 0 0 720.78 15.74 0c215.74,-388.46 852.28,-782.99 1638.78,-782.99 1510.76,0 1931.64,802.28 1931.64,2287.62l0 2775.14 -1500.23 0 0 -2501.57c0,-664.65 -265.65,-1248.56 -886.45,-1248.56 -754.02,0 -1113.56,510.35 -1113.56,1348.55l0 2401.59 -1500.23 0 0 -5000.46 0.83 0 0 -0.1 0 -0zm-2499.81 5000.49l1500.22 0 0 -4999.63 -1500.22 0 0 4999.63zm1687.04 -6749.7c0,518.17 -419.12,937.28 -937.29,937.28 -518.17,0 -937.29,-419.11 -937.29,-937.28 0,-518.17 419.12,-937.29 937.29,-937.29 518.17,0 937.29,419.12 937.29,937.29z"/>
 </g>
</svg>
