<?xml version="1.0" encoding="UTF-8"?>
<!DOCTYPE svg PUBLIC "-//W3C//DTD SVG 1.1//EN" "http://www.w3.org/Graphics/SVG/1.1/DTD/svg11.dtd">
<!-- Creator: CorelDRAW -->
<svg xmlns="http://www.w3.org/2000/svg" xml:space="preserve" width="15in" height="15in" version="1.1" style="shape-rendering:geometricPrecision; text-rendering:geometricPrecision; image-rendering:optimizeQuality; fill-rule:evenodd; clip-rule:evenodd"
viewBox="0 0 15000 15000"
 xmlns:xlink="http://www.w3.org/1999/xlink"
 xmlns:xodm="http://www.corel.com/coreldraw/odm/2003">
 <defs>
  <style type="text/css">
   <![CDATA[
    .fil0 {fill:#0866FF;fill-rule:nonzero}
    .fil1 {fill:white;fill-rule:nonzero}
   ]]>
  </style>
 </defs>
 <g id="Layer_x0020_1">
  <metadata id="CorelCorpID_0Corel-Layer"/>
  <g id="g2">
   <path id="path1" class="fil0" d="M12750 7342.5c0,2926.17 -2292.53,5092.45 -5250,5092.45 -531.13,0 -1040.77,-70.02 -1519.78,-201.71 -93.09,-25.73 -192.03,-18.44 -280.35,20.43l-1042.09 460.04c-272.52,120.42 -580.2,-73.47 -589.33,-371.33l-28.65 -934c-3.57,-114.98 -55.3,-222.67 -141.1,-299.18 -1021.54,-913.59 -1648.69,-2236.04 -1648.69,-3766.69 0,-2926.04 2292.53,-5092.45 5250,-5092.45 2957.47,0 5250,2166.41 5250,5092.45l-0.01 -0.01z"/>
   <path id="path2" class="fil1" d="M8925.49 8808.44l1827.84 -2824.85c183.81,-283.93 -156.62,-614.41 -434.98,-422.39l-1908.07 1316.08c-64.32,44.43 -149.07,45.63 -214.57,3.19l-1693.5 -1095.67c-143.35,-92.7 -334.73,-51.72 -427.42,91.63l-1827.98 2824.99c-183.8,283.93 156.62,614.41 434.97,422.38l1908.48 -1316.2c64.32,-44.43 149.07,-45.63 214.7,-3.19l1693.24 1095.66c143.37,92.7 334.73,51.73 427.43,-91.63l-0.13 0 -0 0z"/>
  </g>
 </g>
</svg>
