<?xml version="1.0" encoding="UTF-8"?>
<!DOCTYPE svg PUBLIC "-//W3C//DTD SVG 1.1//EN" "http://www.w3.org/Graphics/SVG/1.1/DTD/svg11.dtd">
<!-- Creator: CorelDRAW -->
<svg xmlns="http://www.w3.org/2000/svg" xml:space="preserve" width="15in" height="15in" version="1.1" style="shape-rendering:geometricPrecision; text-rendering:geometricPrecision; image-rendering:optimizeQuality; fill-rule:evenodd; clip-rule:evenodd"
viewBox="0 0 15000 15000"
 xmlns:xlink="http://www.w3.org/1999/xlink"
 xmlns:xodm="http://www.corel.com/coreldraw/odm/2003">
 <defs>
  <style type="text/css">
   <![CDATA[
    .str0 {stroke:white;stroke-width:175.63;stroke-linecap:round;stroke-linejoin:round;stroke-miterlimit:2.61313}
    .fil2 {fill:none;fill-rule:nonzero}
    .fil1 {fill:#7360F2;fill-rule:nonzero}
    .fil0 {fill:white;fill-rule:nonzero}
   ]]>
  </style>
 </defs>
 <g id="Layer_x0020_1">
  <metadata id="CorelCorpID_0Corel-Layer"/>
  <path class="fil0" d="M10048.49 4706.09c-172.5,-159.17 -869.58,-665.21 -2422.29,-672.08 0,0 -1831.04,-110.42 -2723.65,708.33 -496.87,496.98 -671.67,1224.17 -690.1,2125.73 -18.44,901.56 -42.29,2591.15 1586.35,3049.27l1.56 0 -1.04 699.06c0,0 -10.42,283.02 175.94,340.73 225.42,70 357.71,-145.1 572.92,-376.98 118.13,-127.29 281.25,-314.27 404.17,-457.19 1113.85,93.75 1970.52,-120.52 2067.81,-152.19 224.9,-72.92 1497.5,-235.94 1704.48,-1925.42 213.65,-1741.35 -103.33,-2842.81 -676.15,-3339.26l-0 0z"/>
  <path class="fil1" d="M11185.49 3291.97c-245.83,-223.36 -1306.96,-890.1 -3521.07,-899.76 0,0 -2621.83,-172.26 -3894.56,980.53 -708.36,699.41 -946.99,1739.46 -973.15,3008.68 -26.17,1269.21 -161.72,3693.85 2159.84,4338.82l0 0c0,0 -9.13,1800.04 -10.19,1958.25 0,110.63 17.56,186.31 80.78,201.94 45.48,11.06 113.61,-12.47 171.56,-70.24 371.21,-372.79 1559.65,-1806.54 1559.65,-1806.54 1594.59,104.13 2863.28,-210.72 2999.72,-255.31 321.69,-103.43 2061.67,-252.86 2356.15,-2631.5 304.31,-2451.85 -111.85,-4125.47 -928.73,-4824.87l0 -0z"/>
  <path class="fil2 str0" d="M8790.18 6277.11c-28.8,-580.52 -323.63,-885.36 -884.66,-914.68"/>
  <path class="fil2 str0" d="M9549.63 6531.73c11.77,-540.84 -148.56,-992.65 -480.61,-1355.61 -333.63,-364.19 -795.45,-564.72 -1388.09,-608.09"/>
  <path class="fil2 str0" d="M10327.17 6835.86c-7.2,-938.57 -287.63,-1677.65 -841.29,-2217.44 -553.65,-539.78 -1242.35,-812.49 -2065.89,-818.28"/>
  <path class="fil0" d="M7934.84 8259.77c0,0 208.08,17.56 320.11,-120.46l218.44 -274.81c105.36,-136.26 359.63,-223.19 608.62,-84.46 186.66,106.41 367.7,222.13 542.77,346.63 165.23,121.51 503.61,403.87 504.66,403.87 161.2,136.09 198.43,335.92 88.67,546.63 0,1.23 -0.87,3.34 -0.87,4.39 -120.81,209.49 -274.28,398.43 -454.62,559.8 -2.11,1.06 -2.11,2.11 -4.04,3.16 -156.63,130.81 -310.45,205.28 -461.65,223.19 -22.3,3.86 -44.95,5.27 -67.43,4.22 -66.72,0.7 -132.93,-9.48 -196.31,-30.2l-4.92 -7.2c-232.84,-65.67 -621.61,-230.03 -1269.03,-587.2 -374.72,-204.22 -731.36,-439.87 -1066.22,-704.31 -167.87,-132.41 -328.02,-274.46 -479.56,-425.3l-16.15 -16.15 -16.15 -16.15 0 0 -16.15 -16.16c-5.44,-5.27 -10.71,-10.71 -16.15,-16.15 -150.84,-151.54 -292.9,-311.69 -425.3,-479.56 -264.44,-334.86 -500.09,-691.5 -704.31,-1066.05 -357.16,-647.6 -521.52,-1036.02 -587.2,-1269.21l-7.2 -4.92c-20.55,-63.39 -30.73,-129.77 -30.02,-196.31 -1.23,-22.48 0.17,-45.13 4.04,-67.43 18.79,-150.84 93.42,-304.84 223.53,-462 1.06,-1.93 2.11,-1.93 3.16,-4.04 161.2,-180.34 350.14,-333.63 559.8,-454.44 1.06,0 3.16,-1.06 4.39,-1.06 210.72,-109.74 410.55,-72.52 546.46,87.8 1.06,1.06 282.88,339.43 403.87,504.66 124.5,175.24 240.22,356.46 346.63,543.3 138.72,248.81 51.8,503.61 -84.46,608.62l-274.81 218.44c-138.72,112.03 -120.46,320.12 -120.46,320.12 0,0 407.02,1540.51 1927.87,1928.75l-0.01 -0z"/>
 </g>
</svg>
