<?xml version="1.0" encoding="UTF-8"?>
<!DOCTYPE svg PUBLIC "-//W3C//DTD SVG 1.1//EN" "http://www.w3.org/Graphics/SVG/1.1/DTD/svg11.dtd">
<!-- Creator: CorelDRAW -->
<svg xmlns="http://www.w3.org/2000/svg" xml:space="preserve" width="15in" height="15in" version="1.1" style="shape-rendering:geometricPrecision; text-rendering:geometricPrecision; image-rendering:optimizeQuality; fill-rule:evenodd; clip-rule:evenodd"
viewBox="0 0 15000 15000"
 xmlns:xlink="http://www.w3.org/1999/xlink"
 xmlns:xodm="http://www.corel.com/coreldraw/odm/2003">
 <defs>
  <style type="text/css">
   <![CDATA[
    .fil0 {fill:#563D7C;fill-rule:nonzero}
    .fil1 {fill:white;fill-rule:nonzero}
   ]]>
  </style>
 </defs>
 <g id="katman_x0020_1">
  <metadata id="CorelCorpID_0Corel-Layer"/>
  <path class="fil0" d="M2250 11396.11c0,747.74 606.07,1353.78 1353.7,1353.89l7792.57 0c747.75,-0.1 1353.74,-606.23 1353.74,-1353.89l0 -7792.19c0,-747.84 -606.17,-1353.93 -1353.89,-1353.93l-7792.19 0c-747.83,0 -1353.93,606.17 -1353.93,1353.88l0 7792.19 0 0.04z"/>
  <path class="fil1" d="M6604.14 9592.41l0 -1745.18 1522.54 0c302.74,0 546.13,69.73 730.16,209.26 184,139.5 276.04,372.46 276.04,698.95 0,166.24 -28.22,302.74 -84.61,409.58 -56.4,106.85 -132.07,191.46 -227.06,253.76 -94.95,62.35 -204.79,106.85 -329.44,133.59 -124.69,26.66 -255.24,40.03 -391.78,40.03l-1495.84 0zm-1397.94 -5271.12l0 6357.42 3080.77 0c284.94,0 562.44,-35.6 832.53,-106.85 270.09,-71.24 510.48,-181.04 721.22,-329.44 210.7,-148.39 378.41,-339.85 503.06,-574.3 124.69,-234.48 186.99,-512 186.99,-832.53 0,-397.73 -96.47,-737.55 -289.36,-1019.49 -192.94,-281.98 -485.3,-479.35 -877.08,-592.14 284.94,-136.5 500.15,-311.64 645.59,-525.33 145.4,-213.69 218.12,-480.79 218.12,-801.37 0,-296.79 -48.97,-546.08 -146.92,-747.92 -97.95,-201.8 -235.96,-363.57 -414.05,-485.26 -178.05,-121.7 -391.74,-209.26 -641.07,-262.67 -249.3,-53.44 -525.33,-80.14 -828.06,-80.14l-2991.72 0zm1397.94 2573.23l0 -1486.94 1308.85 0c124.69,0 244.86,10.38 360.61,31.17 115.75,20.76 218.17,57.83 307.21,111.28 89,53.44 160.25,127.64 213.69,222.59 53.4,95 80.15,216.69 80.15,365.04 0,267.13 -80.15,460.07 -240.43,578.77 -160.25,118.74 -365.04,178.09 -614.38,178.09l-1415.69 0z"/>
 </g>
</svg>
