<?xml version="1.0" encoding="UTF-8"?>
<!DOCTYPE svg PUBLIC "-//W3C//DTD SVG 1.1//EN" "http://www.w3.org/Graphics/SVG/1.1/DTD/svg11.dtd">
<!-- Creator: CorelDRAW -->
<svg xmlns="http://www.w3.org/2000/svg" xml:space="preserve" width="15in" height="15in" version="1.1" style="shape-rendering:geometricPrecision; text-rendering:geometricPrecision; image-rendering:optimizeQuality; fill-rule:evenodd; clip-rule:evenodd"
viewBox="0 0 15000 15000"
 xmlns:xlink="http://www.w3.org/1999/xlink"
 xmlns:xodm="http://www.corel.com/coreldraw/odm/2003">
 <defs>
  <style type="text/css">
   <![CDATA[
    .str0 {stroke:white;stroke-width:6.94;stroke-miterlimit:2.61313}
    .fil2 {fill:none}
    .fil3 {fill:white}
    .fil0 {fill:black;fill-rule:nonzero}
    .fil1 {fill:#5D8AB2;fill-rule:nonzero}
   ]]>
  </style>
 </defs>
 <g id="Layer_x0020_1">
  <metadata id="CorelCorpID_0Corel-Layer"/>
  <path class="fil0" d="M8363.68 3465.62c17.43,5.89 34.65,12.54 52.33,17.53 92.48,26.1 200.08,30.09 274.78,81.74 212.26,146.79 446.67,179.02 692.99,180.3 117.41,0.61 235.3,-1.84 352.11,7.64 351.85,28.56 685.71,123.88 985.29,312.32 127.2,82.21 244.75,179.62 349.5,289.11 82.06,84.11 95.06,207.49 46.74,312.83 -47.12,102.73 -155.38,130.31 -262.66,121.73 -68.47,-6.57 -135.92,-23.08 -199.67,-48.72 -98.52,-38.26 -169.76,25.52 -246.32,58.72 -236.04,102.39 -286.35,458.8 -131.14,636.91 319.96,367.18 525.74,808.55 767.75,1226.26 56.9,98.2 132.02,185.74 196.81,279.52 146.43,211.94 296.79,421.45 435.32,638.48 75.78,118.73 66.53,259.6 47.16,393.8 -35.76,247.76 -4.16,469.24 189.67,653.17 186.67,177.13 364.28,364.1 540.91,551.42 97.19,100.96 187.4,209.73 269.25,323.59 27.62,39.15 35.05,117.39 14.43,159.52 -26.73,54.59 -94.54,74.29 -160.31,40.25 -30.02,-27.44 -62.65,-52.57 -89.67,-82.71 -138.43,-154.41 -277.61,-308.23 -412.09,-466.04 -85.25,-100.04 -160.22,-208.79 -244.35,-309.85 -106.87,-128.35 -225.28,-247.72 -324.63,-381.41 -43.56,-63.75 -69.04,-138.59 -73.28,-215.85 -10.17,-157.74 1.24,-316.74 -2.28,-475.09 -1.27,-57.14 -6.41,-121.6 -33.47,-169.28 -61.09,-113.22 -133.35,-221.11 -215.2,-320.66 -139.4,-162.35 -286.15,-316.37 -383.59,-511.25 -140.02,-280.04 -288.46,-555.87 -434.26,-832.99 -72.73,-138.23 -204.11,-153.86 -306.69,-36.09 -27.57,30.44 -50.54,64.91 -67.84,102.17 -45.56,104.51 -86.28,211.14 -128.6,317.06 -85.7,214.49 -163.71,432.44 -258.87,642.65 -94.04,207.7 -202.66,409.02 -309.61,610.63 -178.1,335.71 -359.96,669.42 -540.24,1003.97 -53.49,51.54 -100.44,113.17 -161.61,152.88 -260.19,168.86 -522.44,334.8 -788.24,494.67 -170.2,102.37 -347.83,192.43 -522.29,287.69 -69.12,37.75 -135.36,84.57 -208.95,109.31 -82.9,25.12 -168.65,41.57 -255.13,48.27 -73.13,7.65 -138.42,-23.45 -158.22,-98.18 -20.27,-76.46 -7.84,-151.55 65.3,-203.1 162.83,-114.78 327.09,-227.64 487.44,-345.81 274.58,-201.9 512.59,-451.08 702,-734.48 153.66,-229.02 251.54,-488.06 332.33,-751.8 96.8,-316 214.6,-628.56 206.61,-965.93 -3.03,-127.87 -12.57,-259.24 -45.57,-381.91 -49.14,-182.72 0.14,-357.93 8.86,-536.31 61.99,-16.05 124.35,-30.81 185.92,-48.36 254.2,-72.44 450.99,-227.65 624.79,-421.86 130.8,-146.16 269.31,-286.07 411.94,-420.78 126.07,-119.08 282.93,-182.74 451.45,-223.81 55.79,-13.6 127.1,-46.09 151.53,-91.4 100.48,-186.37 54.89,-351.48 -147.7,-429.8 -169.96,-64.44 -349.56,-100.65 -530.98,-106.48 -226.11,-7.44 -453.63,28.61 -680.59,45.15 -6.07,0.76 -12.12,1.12 -18.16,1.12 -14.39,0 -28.74,-2 -42.57,-5.9 -86.61,-26.41 -172.15,-58.1 -255.54,-93.79 -212.59,-99.98 -426.43,-115.67 -647.18,-31.01 -109.26,41.9 -217.68,89.52 -330.71,117.39 -350.44,88.05 -695.68,207.01 -1026.92,353.19 -321.43,140.4 -565.32,373.02 -812.39,606.85 -102.27,96.79 -180,206.84 -203.43,350.18 -6.49,39.7 -25.92,77.27 -39.41,115.82 -97.92,83 -196.51,165.23 -293.4,249.42 -35.6,30.72 -69.02,64.24 -99.21,99.76 -69.92,82.94 -61.82,147.77 18.62,215.82 107.54,90.96 213.88,183.32 319.02,277.07 84.93,77.93 141.55,182.28 160.4,296.02 57.22,296.05 217.65,428.9 518.21,428.92 61.7,0 123.41,0.26 185.11,-0.06 83.04,-0.43 136.81,-46.1 144.9,-128.68 6,-61.2 7.81,-123.01 7.91,-184.55 0.66,-398.78 363.04,-660.89 742.05,-528.57 103.22,37.72 201.04,90.25 289.63,155.42 89.24,64.16 106.99,180.3 45.59,273.51 -85.02,129.07 -182.56,249.92 -275.13,373.99 -58.72,78.71 -143.59,96.54 -234.07,94.04 -126.08,-3.48 -252.22,-8.91 -377.96,-18.37 -32.81,-2.47 -64.25,-23.03 -96.35,-35.22 -75.56,-28.69 -122.01,-6.89 -128.69,74.02 -12.96,157.27 -127.98,243.2 -225.5,342.11 -12.56,12.48 -29.09,20.17 -46.71,21.7 -320.88,8.11 -619.78,-45.5 -843.06,-306.51 -104.89,-122.63 -204.51,-250.39 -316.46,-366.2 -179.11,-185.29 -228.09,-194.07 -396.73,13.78 -109.2,134.59 -104.2,244.85 -25.28,387.46 125.76,222.45 290.17,422.09 484.76,587.85 162.28,141.75 169.68,315.71 140.59,504.76 -3.26,14.02 -10.09,27.17 -19.75,38.03 -58.06,72.38 -52.37,152.2 -25.76,232.9 12.62,35.76 28.76,70.53 47.91,103.32 191.91,343.34 260.73,723.58 281.26,1105.12 19.29,358.43 -7.74,721.83 -176.93,1055.02 -79.24,156.04 -160.12,311.46 -232.23,470.8 -25.81,64.83 -42.37,133.03 -48.87,202.47 -7.17,53.41 -13.91,110.13 -75.67,108.83 -61.07,-1.29 -74.18,-55.03 -67.17,-110.94 28.28,-225.69 79.06,-447.25 195.85,-642.95 233.55,-391.32 289.41,-804.69 180.52,-1242.45 -56.51,-227.18 -121.45,-452.28 -183.67,-678.03 -69.09,-250.67 -258.17,-380.87 -488.36,-447.15 -144.09,-41.48 -299.93,-54.36 -450.96,-57.37 -546.09,-10.89 -1092.37,-14.35 -1638.58,-15.3 -113.3,-0.2 -190.76,-36.44 -235.58,-141.52 -44.13,-103.45 10.94,-180.78 65.53,-257.59 17.06,-24.06 38.85,-44.51 63.94,-60.05 343.61,-206.54 648.87,-474.88 1021.5,-634.59 37.65,-16.14 75.09,-33.21 113.85,-46.22 244.41,-82 432.5,-242.2 601.8,-429.43 130.09,-146.85 241.75,-309.44 331.54,-483.83 83.31,-157.15 188.8,-302.67 286.7,-451.9 151.08,-230.31 290.5,-469.94 459.28,-686.61 267.49,-343.39 566.64,-659.17 949.43,-880.24 81.65,-45.74 167.46,-84.44 255.81,-115.14 406.85,-147.3 814.91,-291.22 1222.52,-436.41 24.77,-8.83 53.1,-13.11 73.41,-28.12 132.78,-98.08 284.37,-153.88 440.03,-201.31l211.56 0 -0.02 -0.01z"/>
  <path class="fil1" d="M8753.95 8576.97c180.28,-334.55 362.15,-668.26 540.24,-1003.97 106.95,-201.61 215.58,-402.91 309.61,-610.63 95.16,-210.2 173.18,-428.16 258.87,-642.65 42.32,-105.92 83.04,-212.54 128.6,-317.05 17.29,-37.26 40.24,-71.73 67.8,-102.19 102.56,-117.78 233.96,-102.14 306.69,36.09 145.8,277.12 294.24,552.96 434.25,832.99 97.44,194.87 244.19,348.9 383.59,511.25 81.87,99.57 154.14,207.46 215.34,320.76 27.06,47.69 32.2,112.15 33.47,169.28 3.52,158.35 -7.9,317.36 2.28,475.09 4.13,77.19 29.61,152.02 73.27,215.92 99.35,133.7 217.76,253.06 324.63,381.41 84.13,101.06 159.1,209.81 244.35,309.85 134.48,157.81 273.67,311.63 412.09,466.04 27.03,30.15 59.65,55.27 89.67,82.71 -218.5,54.69 -436.61,110.96 -655.56,163.78 -535.37,129.17 -1073.72,247.04 -1605.66,388.95 -279.36,74.54 -549.72,184.97 -820.73,288.17 -501.31,190.88 -1000.12,388.32 -1499.93,583.15 -37.41,14.58 -74.44,30.16 -142.65,57.87 19.26,-105.06 17.33,-193.37 51.43,-264.37 214.34,-446.4 388.26,-913.11 662.28,-1329.9 103.08,-156.79 127.57,-336.53 144.78,-518.49 14.35,-151.74 34.94,-302.89 51.54,-454.44 -1.12,-13.69 -4.6,-27.13 -10.25,-39.63l-0.01 0 0.02 0.01z"/>
  <path class="fil1" d="M5506.17 5369.11c13.49,-38.55 32.92,-76.13 39.41,-115.82 23.44,-143.33 101.17,-253.39 203.43,-350.18 247.07,-233.84 490.96,-466.46 812.39,-606.85 331.59,-146.51 676.82,-265.47 1027.49,-353.34 113.03,-27.86 221.45,-75.48 330.71,-117.39 220.76,-84.66 434.59,-68.97 647.18,31.01 83.17,35.52 168.7,67.2 255.16,93.67 13.99,3.84 28.34,5.85 42.72,5.85 6.04,0 12.09,-0.37 18.08,-1.05 226.96,-16.54 454.48,-52.59 680.59,-45.14 181.5,5.76 361.1,41.96 530.85,106.32 202.59,78.31 248.19,243.43 147.7,429.8 -24.43,45.31 -95.74,77.8 -151.53,91.4 -168.52,41.07 -325.38,104.74 -451.45,223.81 -142.59,134.69 -281.1,274.6 -411.9,420.76 -173.8,194.21 -370.59,349.42 -624.79,421.87 -61.56,17.54 -123.92,32.31 -185.92,48.35 -264.44,-220.26 -561.34,-253.66 -884.39,-161.41 -276.72,79.02 -555.52,48.66 -835.06,6.62 -120.92,-18.19 -245.22,-15.1 -368.06,-19.15 -210.29,-6.93 -421.16,-5.16 -630.64,-21.6 -65.88,-5.18 -128.09,-57.03 -191.99,-87.51l0.02 -0.02z"/>
  <g id="_2659091607904">
   <line class="fil2" x1="4954.74" y1="11512.78" x2="7854.17" y2= "11183.79" />
  </g>
  <path class="fil3 str0" d="M10110.93 4023.02c-5.38,-2.31 -10.89,-4.55 -16.51,-6.72 -0.08,-0.03 -0.16,-0.06 -0.24,-0.09 -92,-34.87 -186.83,-61.46 -283.24,-79.44 -81.63,-15.21 -164.42,-24.24 -247.61,-26.89 -226.07,-7.45 -453.56,28.59 -680.48,45.13 -0.04,0 -0.07,0 -0.11,0.01 -1.6,0.18 -3.21,0.34 -4.81,0.48 -4.42,0.4 -8.83,0.59 -13.24,0.59 -8.76,0 -17.51,-0.74 -26.14,-2.2 -5.58,-0.93 -11.12,-2.16 -16.61,-3.66 -86.46,-26.47 -171.99,-58.15 -255.16,-93.67 -212.59,-99.98 -426.42,-115.67 -647.18,-31.01 -109.26,41.91 -217.68,89.53 -330.71,117.39 -350.67,87.87 -695.9,206.83 -1027.49,353.34 -174.63,76.27 -326.37,179.76 -468.17,295.89 -119.07,97.54 -231.13,203.97 -343.86,310.66 -0.11,0.11 -0.23,0.22 -0.35,0.33 -102.1,96.71 -179.68,206.67 -203.08,349.85 -6.49,39.7 -25.92,77.27 -39.41,115.82 -0.12,0.1 -0.24,0.2 -0.39,0.33 63.9,30.48 126.11,82.33 191.99,87.51 209.48,16.44 420.35,14.67 630.64,21.6 122.84,4.05 247.14,0.96 368.06,19.15 279.54,42.04 558.34,72.4 835.06,-6.62 323.05,-92.25 619.95,-58.85 884.39,161.41 62,-16.04 124.36,-30.81 185.92,-48.35 254.2,-72.45 450.99,-227.66 624.79,-421.87 130.8,-146.16 269.31,-286.07 411.9,-420.76 126.07,-119.07 282.93,-182.74 451.45,-223.81 55.79,-13.6 127.1,-46.09 151.53,-91.4 97.66,-181.12 57.34,-342.17 -130.95,-422.97zm-3074.76 2967.9c-126.08,-3.48 -252.22,-8.91 -377.96,-18.37 -32.81,-2.47 -64.25,-23.03 -96.35,-35.22 -75.56,-28.69 -122.01,-6.89 -128.69,74.02 -12.96,157.27 -127.98,243.2 -225.5,342.11 -12.56,12.48 -29.09,20.17 -46.71,21.7 -320.88,8.11 -619.78,-45.5 -843.06,-306.51 -104.89,-122.63 -204.51,-250.39 -316.46,-366.2 -179.11,-185.29 -228.09,-194.07 -396.73,13.78 -109.2,134.59 -104.2,244.85 -25.28,387.46 125.76,222.45 290.17,422.09 484.76,587.85 162.28,141.75 169.68,315.71 140.59,504.76 -3.26,14.02 -10.09,27.17 -19.75,38.03 -58.06,72.38 -52.37,152.2 -25.76,232.9 12.62,35.76 28.76,70.53 47.91,103.32 191.91,343.34 260.73,723.58 281.26,1105.12 19.29,358.43 -7.74,721.83 -176.93,1055.02 -79.24,156.04 -160.12,311.46 -232.23,470.8 -25.81,64.83 -42.37,133.03 -48.87,202.47 -6.2,46.16 -12.07,94.8 -53.43,106.31l2877.19 -326.47c19.26,-105.06 17.33,-193.37 51.43,-264.37 214.34,-446.4 388.26,-913.11 662.28,-1329.9 103.08,-156.79 127.57,-336.53 144.78,-518.49 14.35,-151.74 34.94,-302.89 51.54,-454.44 -1.12,-13.69 -4.6,-27.13 -10.24,-39.59 -53.49,51.54 -100.44,113.17 -161.61,152.88 -260.19,168.86 -522.44,334.8 -788.24,494.67 -170.2,102.37 -347.83,192.43 -522.29,287.69 -69.12,37.75 -135.36,84.57 -208.95,109.31 -82.9,25.12 -168.65,41.57 -255.13,48.27 -73.13,7.65 -138.42,-23.45 -158.22,-98.18 -20.27,-76.46 -7.84,-151.55 65.3,-203.1 162.83,-114.78 327.09,-227.64 487.44,-345.81 274.58,-201.9 512.59,-451.08 702,-734.48 153.66,-229.02 251.54,-488.06 332.33,-751.8 96.8,-316 214.6,-628.56 206.61,-965.93 -3.03,-127.87 -12.57,-259.24 -45.57,-381.91 -49.14,-182.72 0.14,-357.93 8.86,-536.31 61.99,-16.05 124.35,-30.81 185.92,-48.36 254.2,-72.44 450.99,-227.65 624.79,-421.86 130.8,-146.16 269.31,-286.07 411.94,-420.78 126.07,-119.08 282.93,-182.74 451.45,-223.81 55.79,-13.6 127.1,-46.09 151.53,-91.4 97.69,-181.2 57.31,-342.3 -131.19,-423.07 -5.38,-2.31 -10.89,-4.56 -16.51,-6.73 -0.08,-0.03 -0.16,-0.06 -0.24,-0.09 -91.94,-34.86 -186.78,-61.46 -283.24,-79.43 -81.62,-15.22 -164.37,-24.27 -247.5,-26.94 -226.11,-7.44 -453.63,28.61 -680.59,45.15 -0.04,0 -0.07,0.01 -0.11,0.02 -1.61,0.2 -3.21,0.37 -4.81,0.52 -4.41,0.37 -8.84,0.57 -13.26,0.57 -8.74,0 -17.47,-0.74 -26.11,-2.19 -5.54,-0.94 -11.03,-2.17 -16.43,-3.7 -86.61,-26.41 -172.15,-58.1 -255.54,-93.79 -212.59,-99.98 -426.43,-115.67 -647.18,-31.01 -109.26,41.9 -217.68,89.52 -330.71,117.39 -350.44,88.05 -695.68,207.01 -1026.92,353.19 -174.78,76.34 -326.63,179.95 -468.53,296.19 -119.08,97.52 -231.15,203.95 -343.88,310.64 -0.11,0.11 -0.23,0.22 -0.35,0.33 -102.26,96.79 -179.99,206.85 -203.43,350.18 -6.49,39.69 -25.92,77.27 -39.41,115.82 -97.8,82.9 -196.27,165.03 -293.04,249.11 -35.6,30.72 -69.02,64.24 -99.21,99.76 -69.92,82.94 -61.82,147.77 18.62,215.82 107.54,90.96 213.88,183.32 319.02,277.07 84.93,77.93 141.55,182.28 160.4,296.02 57.22,296.05 217.65,428.9 518.21,428.92 61.7,0 123.41,0.26 185.11,-0.06 83.04,-0.43 136.81,-46.1 144.9,-128.68 6,-61.2 7.81,-123.01 7.91,-184.55 0.66,-398.78 363.04,-660.89 742.05,-528.57 103.22,37.72 201.04,90.25 289.63,155.42 89.24,64.16 106.99,180.3 45.59,273.51 -85.02,129.07 -182.56,249.92 -275.13,373.99 -58.72,78.71 -143.59,96.54 -234.07,94.04z"/>
  <path class="fil3 str0" d="M8881.65 3955.13c-1.24,0.13 -2.48,0.25 -3.72,0.36 1.24,-0.11 2.48,-0.24 3.72,-0.36zm-25.81 0.67c-0.21,-0.01 -0.42,-0.02 -0.67,-0.03 0.22,0.02 0.44,0.03 0.67,0.03zm8.83 0.26c4.43,0 8.85,-0.2 13.26,-0.57 -4.42,0.4 -8.83,0.59 -13.26,0.57zm-8.83 -0.25c2.94,0.17 5.88,0.25 8.85,0.27 -2.96,0 -5.91,-0.08 -8.85,-0.27zm-2755.19 630.28c-2.47,2.01 -4.94,4.03 -7.41,6.05 2.47,-2.02 4.94,-4.04 7.41,-6.05zm-351.27 316.71c-0.11,0.11 -0.23,0.22 -0.35,0.33 0.11,-0.11 0.23,-0.22 0.35,-0.33zm3133.48 -947.8c-0.04,0 -0.07,0.01 -0.11,0.01 -0.02,0 -0.05,0.01 -0.07,0.01 -0.34,0.04 -0.68,0.07 -1.02,0.09 -8.99,0.74 -17.44,1.06 -25.81,0.72 -0.21,-0.01 -0.42,-0.02 -0.63,-0.04 -0.35,-0.02 -0.7,-0.04 -1.05,-0.07 -0.04,-0 -0.07,-0.01 -0.11,-0.01 -2.53,-0.14 -5.05,-0.34 -7.58,-0.62 -7.96,-0.86 -16.01,-2.42 -24.53,-4.89 -86.46,-26.47 -171.99,-58.15 -255.16,-93.67 -212.59,-99.98 -426.42,-115.67 -647.18,-31.01 -109.26,41.91 -217.68,89.53 -330.71,117.39 -350.67,87.87 -695.9,206.83 -1027.49,353.34 -171.59,74.94 -321.07,176.17 -460.75,289.83 -2.47,2.01 -4.94,4.03 -7.41,6.05 -1.9,1.56 -3.8,3.12 -5.7,4.68 -103.37,85.37 -201.8,177.77 -302.79,272.7 -10.04,9.45 -20.13,18.95 -30.3,28.51 -1.69,1.59 -3.38,3.18 -5.1,4.75 -0.11,0.11 -0.23,0.22 -0.33,0.35 -102.1,96.71 -179.68,206.67 -203.08,349.85 -6.49,39.7 -25.92,77.27 -39.41,115.82 -0.12,0.1 -0.24,0.2 -0.39,0.33 63.9,30.48 126.11,82.33 191.99,87.51 209.48,16.44 420.35,14.67 630.64,21.6 122.84,4.05 247.14,0.96 368.06,19.15 279.54,42.04 558.34,72.4 835.06,-6.62 323.05,-92.25 619.95,-58.85 884.39,161.41 62,-16.04 124.36,-30.81 185.92,-48.35 254.2,-72.45 450.99,-227.66 624.79,-421.87 130.8,-146.16 269.31,-286.07 411.9,-420.76 126.07,-119.07 282.93,-182.74 451.45,-223.81 55.79,-13.6 127.1,-46.09 151.53,-91.4 97.66,-181.12 57.34,-342.17 -130.95,-422.97 -0.65,-0.28 -1.31,-0.56 -1.97,-0.84 -0.33,-0.14 -0.66,-0.28 -0.98,-0.41 -2.66,-1.12 -5.34,-2.22 -8.05,-3.3 -1.82,-0.73 -3.66,-1.45 -5.5,-2.17 -0.08,-0.03 -0.16,-0.06 -0.24,-0.09 -37.52,-14.22 -75.5,-27.06 -113.87,-38.5 -54.28,-15.83 -110.44,-29.42 -157.11,-38.59 -2.28,-0.45 -4.53,-0.89 -6.76,-1.31 -1.11,-0.21 -2.23,-0.42 -3.34,-0.63 -0.26,-0.05 -0.53,-0.1 -0.8,-0.15 -0.45,-0.08 -0.9,-0.17 -1.35,-0.25 -0.51,-0.09 -1.02,-0.19 -1.53,-0.28 -39.51,-7.32 -79.28,-13.19 -119.22,-17.61 -1.44,-0.16 -2.89,-0.31 -4.34,-0.47 -40.68,-4.37 -81.55,-7.23 -122.52,-8.53 -226.07,-7.45 -453.56,28.59 -680.48,45.13z"/>
  <path class="fil3 str0" d="M5545.58 5253.29c0.14,-0.84 0.28,-1.68 0.42,-2.52 -0.14,0.84 -0.28,1.68 -0.42,2.52zm80.59 -205.94c-39.13,60.63 -67.41,127.71 -80.17,203.42 12.84,-76.22 41.07,-143.02 80.17,-203.42zm35.91 -50.07c26.06,-33.21 55.34,-64.45 86.93,-94.17 -47.06,44.21 -89,91.81 -122.84,144.24 11.13,-17.19 23.13,-33.85 35.91,-50.07zm3193.68 -1041.48c0.02,0 0.05,0 0.07,0 -0.02,0 -0.05,-0 -0.07,-0zm955.18 -19.04c0.45,0.08 0.9,0.17 1.35,0.25 -0.45,-0.08 -0.9,-0.17 -1.35,-0.25zm-583.74 1245.33c-173.8,194.21 -370.59,349.42 -624.79,421.86 -61.57,17.55 -123.93,32.31 -185.92,48.36 -8.72,178.38 -58,353.59 -8.86,536.31 33,122.67 42.54,254.04 45.57,381.91 7.99,337.37 -109.81,649.93 -206.61,965.93 -80.79,263.74 -178.67,522.78 -332.33,751.8 -189.41,283.4 -427.42,532.58 -702,734.48 -160.35,118.17 -324.61,231.03 -487.44,345.81 -73.14,51.55 -85.57,126.64 -65.3,203.1 19.8,74.73 85.09,105.83 158.22,98.18 86.48,-6.7 172.23,-23.15 255.13,-48.27 73.59,-24.74 139.83,-71.56 208.95,-109.31 174.46,-95.26 352.09,-185.32 522.29,-287.69 265.8,-159.87 528.05,-325.81 788.24,-494.67 61.17,-39.71 108.12,-101.34 161.6,-152.91 180.28,-334.55 362.15,-668.26 540.24,-1003.97 106.95,-201.61 215.58,-402.91 309.61,-610.63 95.16,-210.2 173.18,-428.16 258.87,-642.65 42.32,-105.92 83.04,-212.54 128.6,-317.05 17.29,-37.26 40.24,-71.73 67.8,-102.19 78.97,-90.69 175.05,-102.28 248.27,-39.69 21.89,18.69 41.73,44.01 58.42,75.78 145.8,277.12 294.24,552.96 434.28,832.97 0.01,0.02 0.02,0.04 0.03,0.06 97.44,194.88 244.19,348.9 383.59,511.25 52.56,63.93 101.16,131.29 145.39,201.29 24.65,39 47.96,78.83 69.85,119.35 0.02,0.02 0.03,0.05 0.04,0.08 27.06,47.69 32.2,112.15 33.47,169.28 3.52,158.35 -7.9,317.36 2.28,475.09 1.65,30.78 6.69,61.2 14.93,90.69 12.43,44.45 32.08,86.78 58.27,125.11 0.03,0.04 0.06,0.08 0.09,0.12 99.33,133.64 217.7,252.98 324.54,381.29 0.03,0.04 0.06,0.07 0.09,0.11 84.09,101.03 159.04,209.74 244.26,309.74 0.03,0.04 0.06,0.07 0.09,0.11 134.45,157.78 273.6,311.56 412,465.93 0.03,0.04 0.07,0.07 0.1,0.11 27,30.09 59.59,55.19 89.57,82.6 65.77,34.04 133.58,14.34 160.31,-40.25 20.62,-42.13 13.19,-120.37 -14.43,-159.52 -81.85,-113.86 -172.06,-222.63 -269.25,-323.59 -176.63,-187.32 -354.24,-374.29 -540.91,-551.42 -193.83,-183.93 -225.43,-405.41 -189.67,-653.17 19.37,-134.2 28.62,-275.07 -47.16,-393.8 -138.53,-217.03 -288.89,-426.54 -435.32,-638.48 -64.79,-93.78 -139.91,-181.32 -196.81,-279.52 -242.01,-417.71 -447.79,-859.08 -767.75,-1226.26 -155.21,-178.11 -104.9,-534.52 131.14,-636.91 76.56,-33.2 147.8,-96.98 246.32,-58.72 63.75,25.64 131.2,42.15 199.67,48.72 107.28,8.58 215.54,-19 262.66,-121.73 48.32,-105.34 35.32,-228.72 -46.74,-312.83 -104.75,-109.49 -222.3,-206.9 -349.5,-289.11 -299.58,-188.44 -633.44,-283.76 -985.29,-312.32 -116.81,-9.48 -234.7,-7.03 -352.11,-7.64 -246.32,-1.28 -480.73,-33.51 -692.99,-180.3 -74.7,-51.65 -182.3,-55.64 -274.78,-81.74 -17.68,-4.99 -34.9,-11.64 -52.31,-17.52l-211.56 0c-155.66,47.43 -307.25,103.23 -440.03,201.31 -20.31,15.01 -48.64,19.29 -73.41,28.12 -407.61,145.19 -815.67,289.11 -1222.52,436.41 -88.35,30.7 -174.16,69.4 -255.81,115.14 -382.79,221.07 -681.94,536.85 -949.43,880.24 -168.78,216.67 -308.2,456.3 -459.28,686.61 -97.9,149.23 -203.39,294.75 -286.7,451.9 -89.79,174.39 -201.45,336.98 -331.54,483.83 -169.3,187.23 -357.39,347.43 -601.8,429.43 -38.76,13.01 -76.2,30.08 -113.85,46.22 -372.63,159.71 -677.89,428.05 -1021.5,634.59 -25.09,15.54 -46.88,35.99 -63.94,60.05 -54.59,76.81 -109.66,154.14 -65.53,257.59 44.82,105.08 122.28,141.32 235.58,141.52 546.21,0.95 1092.49,4.41 1638.58,15.3 151.03,3.01 306.87,15.89 450.96,57.37 230.19,66.28 419.27,196.48 488.36,447.15 62.22,225.75 127.16,450.85 183.67,678.03 108.89,437.76 53.03,851.13 -180.52,1242.45 -116.79,195.7 -167.57,417.26 -195.85,642.95 -7.01,55.91 6.1,109.65 67.17,110.94l22.24 -2.52c41.35,-11.51 47.23,-60.15 53.43,-106.31 6.5,-69.44 23.06,-137.64 48.87,-202.47 72.11,-159.34 152.99,-314.76 232.23,-470.8 169.19,-333.19 196.22,-696.59 176.93,-1055.02 -20.53,-381.54 -89.35,-761.78 -281.26,-1105.12 -19.15,-32.79 -35.29,-67.56 -47.91,-103.32 -26.61,-80.7 -32.3,-160.52 25.76,-232.9 9.66,-10.86 16.49,-24.01 19.75,-38.03 29.09,-189.05 21.69,-363.01 -140.59,-504.76 -194.59,-165.76 -359,-365.4 -484.76,-587.85 -78.92,-142.61 -83.92,-252.87 25.28,-387.46 168.64,-207.85 217.62,-199.07 396.73,-13.78 111.95,115.81 211.57,243.57 316.46,366.2 223.28,261.01 522.18,314.62 843.06,306.51 17.62,-1.53 34.15,-9.22 46.71,-21.7 97.52,-98.91 212.54,-184.84 225.5,-342.11 6.68,-80.91 53.13,-102.71 128.69,-74.02 32.1,12.19 63.54,32.75 96.35,35.22 125.74,9.46 251.88,14.89 377.96,18.37 90.48,2.5 175.35,-15.33 234.07,-94.04 92.57,-124.07 190.11,-244.92 275.13,-373.99 61.4,-93.21 43.65,-209.35 -45.59,-273.51 -88.59,-65.17 -186.41,-117.7 -289.63,-155.42 -379.01,-132.32 -741.39,129.79 -742.05,528.57 -0.1,61.54 -1.91,123.35 -7.91,184.55 -8.09,82.58 -61.86,128.25 -144.9,128.68 -61.7,0.32 -123.41,0.06 -185.11,0.06 -300.56,-0.02 -460.99,-132.87 -518.21,-428.92 -18.85,-113.74 -75.47,-218.09 -160.4,-296.02 -105.14,-93.75 -211.48,-186.11 -319.02,-277.07 -80.44,-68.05 -88.54,-132.88 -18.62,-215.82 30.19,-35.52 63.61,-69.04 99.21,-99.76 96.77,-84.09 195.24,-166.22 293.01,-249.09 0.15,-0.12 0.27,-0.22 0.39,-0.33 13.49,-38.55 32.92,-76.12 39.41,-115.82 0.03,-0.16 0.05,-0.32 0.08,-0.48 0.04,-0.2 0.07,-0.41 0.1,-0.61 12.7,-76.76 41,-143.96 80.29,-204.7 0.16,-0.24 0.31,-0.48 0.47,-0.72 10.93,-16.88 22.69,-33.26 35.19,-49.19 26.04,-33.05 55.31,-64.24 86.93,-94.17 0.11,-0.11 0.23,-0.22 0.35,-0.33 84.28,-79.77 168.2,-159.39 254.96,-235.26 10.66,-9.32 21.36,-18.59 32.11,-27.79 17.05,-14.59 34.36,-29.14 52.02,-43.66 1.59,-1.31 3.19,-2.63 4.78,-3.94 2.46,-2.03 4.93,-4.05 7.4,-6.07 100.13,-81.78 205.14,-156.85 321.77,-221.2 44.9,-24.83 91.26,-47.91 139.37,-68.92 331.24,-146.18 676.48,-265.14 1026.92,-353.19 113.03,-27.87 221.45,-75.49 330.71,-117.39 220.75,-84.66 434.59,-68.97 647.18,31.01 83.39,35.69 168.93,67.38 255.54,93.79 5.41,1.52 10.89,2.76 16.43,3.7 5.14,0.86 10.31,1.47 15.5,1.83 0.04,0 0.07,0 0.11,0.01 0.04,0 0.07,0 0.11,0.01 0.3,0.02 0.59,0.04 0.89,0.06 0.22,0.01 0.41,0.02 0.59,0.03 0.02,0 0.05,0 0.07,0 8.67,0.37 17.43,-0.02 26.9,-0.83 0.04,0 0.07,-0 0.11,-0.01 226.96,-16.54 454.48,-52.59 680.59,-45.15 82.61,2.65 164.85,11.61 245.97,26.66 0.51,0.09 1.02,0.19 1.53,0.28 0.72,0.13 1.43,0.27 2.15,0.4 1.11,0.21 2.23,0.42 3.34,0.63 2.26,0.43 4.51,0.86 6.76,1.3 1.22,0.24 2.43,0.48 3.65,0.71 2.06,0.41 4.12,0.81 6.18,1.23 3.93,0.79 7.86,1.59 11.78,2.41 1.58,0.33 3.16,0.66 4.74,0.99 1.41,0.3 2.81,0.59 4.21,0.89 50.96,10.84 101.42,24.08 150.91,39.68 34.23,10.54 66.98,21.87 95.27,33.42 0.89,0.35 1.78,0.7 2.66,1.06 67.68,27.16 117.47,64.99 149.18,110.77 58.62,84.06 55.06,193.87 -7.85,312.48 -0.59,1.12 -1.19,2.24 -1.8,3.36 -24.43,45.31 -95.74,77.8 -151.53,91.4 -168.52,41.07 -325.38,104.73 -451.45,223.81 -142.63,134.71 -281.14,274.62 -411.94,420.78zm-3138.76 -586c-0.15,0.13 -0.31,0.25 -0.46,0.38 0.15,-0.13 0.31,-0.26 0.46,-0.38z"/>
  <path class="fil3 str0" d="M9294.19 7573c-178.09,335.71 -359.96,669.42 -540.23,1004 5.64,12.46 9.12,25.9 10.24,39.59 -16.6,151.55 -37.19,302.7 -51.54,454.44 -17.21,181.96 -41.7,361.7 -144.78,518.49 -274.02,416.79 -447.94,883.5 -662.28,1329.9 -34.1,71 -32.17,159.31 -51.43,264.37 68.21,-27.71 105.24,-43.29 142.65,-57.87 499.81,-194.83 998.62,-392.27 1499.93,-583.15 271.01,-103.2 541.37,-213.63 820.73,-288.17 531.94,-141.91 1070.29,-259.78 1605.66,-388.95 218.95,-52.82 437.06,-109.09 655.56,-163.78 -0.04,-0.03 -0.07,-0.06 -0.11,-0.09 -29.99,-27.4 -62.56,-52.5 -89.56,-82.61 -0.03,-0.04 -0.07,-0.07 -0.1,-0.11 -138.39,-154.37 -277.54,-308.15 -411.99,-465.93 -0.03,-0.04 -0.06,-0.07 -0.09,-0.11 -85.21,-100.01 -160.16,-208.72 -244.26,-309.74 -0.03,-0.04 -0.06,-0.07 -0.09,-0.11 -106.85,-128.31 -225.21,-247.63 -324.54,-381.3 -0.03,-0.04 -0.06,-0.08 -0.08,-0.12 -26.21,-38.39 -45.85,-80.71 -58.26,-125.11 -8.25,-29.5 -13.32,-59.93 -15.01,-90.74 -10.17,-157.74 1.24,-316.74 -2.28,-475.09 -0.32,-14.57 -0.9,-29.61 -2.03,-44.73 -1.17,-15.33 -2.92,-31 -5.52,-46.32 -4.87,-28.15 -12.81,-55.1 -25.87,-78.15 -0.02,-0.02 -0.03,-0.05 -0.05,-0.08 -21.86,-40.52 -45.16,-80.35 -69.81,-119.37 -44.26,-70.03 -92.88,-137.39 -145.45,-201.33 -139.39,-162.33 -286.12,-316.35 -383.56,-511.2 -0.01,-0.02 -0.02,-0.04 0,-0.07 -140.04,-280.01 -288.48,-555.85 -434.28,-832.97 -16.72,-31.79 -36.56,-57.09 -58.42,-75.78 -1.34,-1.15 -2.69,-2.27 -4.05,-3.37 -72.68,-58.72 -166.65,-45.91 -244.22,43.06 -27.56,30.46 -50.51,64.93 -67.8,102.19 -45.56,104.51 -86.28,211.13 -128.6,317.05 -85.69,214.49 -163.71,432.45 -258.87,642.65 -94.03,207.72 -202.66,409.02 -309.61,610.63z"/>
 </g>
 <g id="Layer_x0020_2">
  <metadata id="CorelCorpID_1Corel-Layer"/>
  <path class="fil0" d="M8363.68 3465.62c17.43,5.89 34.65,12.54 52.33,17.53 92.48,26.1 200.08,30.09 274.78,81.74 212.26,146.79 446.67,179.02 692.99,180.3 117.41,0.61 235.3,-1.84 352.11,7.64 351.85,28.56 685.71,123.88 985.29,312.32 127.2,82.21 244.75,179.62 349.5,289.11 82.06,84.11 95.06,207.49 46.74,312.83 -47.12,102.73 -155.38,130.31 -262.66,121.73 -68.47,-6.57 -135.92,-23.08 -199.67,-48.72 -98.52,-38.26 -169.76,25.52 -246.32,58.72 -236.04,102.39 -286.35,458.8 -131.14,636.91 319.96,367.18 525.74,808.55 767.75,1226.26 56.9,98.2 132.02,185.74 196.81,279.52 146.43,211.94 296.79,421.45 435.32,638.48 75.78,118.73 66.53,259.6 47.16,393.8 -35.76,247.76 -4.16,469.24 189.67,653.17 186.67,177.13 364.28,364.1 540.91,551.42 97.19,100.96 187.4,209.73 269.25,323.59 27.62,39.15 35.05,117.39 14.43,159.52 -26.73,54.59 -94.54,74.29 -160.31,40.25 -30.02,-27.44 -62.65,-52.57 -89.67,-82.71 -138.43,-154.41 -277.61,-308.23 -412.09,-466.04 -85.25,-100.04 -160.22,-208.79 -244.35,-309.85 -106.87,-128.35 -225.28,-247.72 -324.63,-381.41 -43.56,-63.75 -69.04,-138.59 -73.28,-215.85 -10.17,-157.74 1.24,-316.74 -2.28,-475.09 -1.27,-57.14 -6.41,-121.6 -33.47,-169.28 -61.09,-113.22 -133.35,-221.11 -215.2,-320.66 -139.4,-162.35 -286.15,-316.37 -383.59,-511.25 -140.02,-280.04 -288.46,-555.87 -434.26,-832.99 -72.73,-138.23 -204.11,-153.86 -306.69,-36.09 -27.57,30.44 -50.54,64.91 -67.84,102.17 -45.56,104.51 -86.28,211.14 -128.6,317.06 -85.7,214.49 -163.71,432.44 -258.87,642.65 -94.04,207.7 -202.66,409.02 -309.61,610.63 -178.1,335.71 -359.96,669.42 -540.24,1003.97 -53.49,51.54 -100.44,113.17 -161.61,152.88 -260.19,168.86 -522.44,334.8 -788.24,494.67 -170.2,102.37 -347.83,192.43 -522.29,287.69 -69.12,37.75 -135.36,84.57 -208.95,109.31 -82.9,25.12 -168.65,41.57 -255.13,48.27 -73.13,7.65 -138.42,-23.45 -158.22,-98.18 -20.27,-76.46 -7.84,-151.55 65.3,-203.1 162.83,-114.78 327.09,-227.64 487.44,-345.81 274.58,-201.9 512.59,-451.08 702,-734.48 153.66,-229.02 251.54,-488.06 332.33,-751.8 96.8,-316 214.6,-628.56 206.61,-965.93 -3.03,-127.87 -12.57,-259.24 -45.57,-381.91 -49.14,-182.72 0.14,-357.93 8.86,-536.31 61.99,-16.05 124.35,-30.81 185.92,-48.36 254.2,-72.44 450.99,-227.65 624.79,-421.86 130.8,-146.16 269.31,-286.07 411.94,-420.78 126.07,-119.08 282.93,-182.74 451.45,-223.81 55.79,-13.6 127.1,-46.09 151.53,-91.4 100.48,-186.37 54.89,-351.48 -147.7,-429.8 -169.96,-64.44 -349.56,-100.65 -530.98,-106.48 -226.11,-7.44 -453.63,28.61 -680.59,45.15 -6.07,0.76 -12.12,1.12 -18.16,1.12 -14.39,0 -28.74,-2 -42.57,-5.9 -86.61,-26.41 -172.15,-58.1 -255.54,-93.79 -212.59,-99.98 -426.43,-115.67 -647.18,-31.01 -109.26,41.9 -217.68,89.52 -330.71,117.39 -350.44,88.05 -695.68,207.01 -1026.92,353.19 -321.43,140.4 -565.32,373.02 -812.39,606.85 -102.27,96.79 -180,206.84 -203.43,350.18 -6.49,39.7 -25.92,77.27 -39.41,115.82 -97.92,83 -196.51,165.23 -293.4,249.42 -35.6,30.72 -69.02,64.24 -99.21,99.76 -69.92,82.94 -61.82,147.77 18.62,215.82 107.54,90.96 213.88,183.32 319.02,277.07 84.93,77.93 141.55,182.28 160.4,296.02 57.22,296.05 217.65,428.9 518.21,428.92 61.7,0 123.41,0.26 185.11,-0.06 83.04,-0.43 136.81,-46.1 144.9,-128.68 6,-61.2 7.81,-123.01 7.91,-184.55 0.66,-398.78 363.04,-660.89 742.05,-528.57 103.22,37.72 201.04,90.25 289.63,155.42 89.24,64.16 106.99,180.3 45.59,273.51 -85.02,129.07 -182.56,249.92 -275.13,373.99 -58.72,78.71 -143.59,96.54 -234.07,94.04 -126.08,-3.48 -252.22,-8.91 -377.96,-18.37 -32.81,-2.47 -64.25,-23.03 -96.35,-35.22 -75.56,-28.69 -122.01,-6.89 -128.69,74.02 -12.96,157.27 -127.98,243.2 -225.5,342.11 -12.56,12.48 -29.09,20.17 -46.71,21.7 -320.88,8.11 -619.78,-45.5 -843.06,-306.51 -104.89,-122.63 -204.51,-250.39 -316.46,-366.2 -179.11,-185.29 -228.09,-194.07 -396.73,13.78 -109.2,134.59 -104.2,244.85 -25.28,387.46 125.76,222.45 290.17,422.09 484.76,587.85 162.28,141.75 169.68,315.71 140.59,504.76 -3.26,14.02 -10.09,27.17 -19.75,38.03 -58.06,72.38 -52.37,152.2 -25.76,232.9 12.62,35.76 28.76,70.53 47.91,103.32 191.91,343.34 260.73,723.58 281.26,1105.12 19.29,358.43 -7.74,721.83 -176.93,1055.02 -79.24,156.04 -160.12,311.46 -232.23,470.8 -25.81,64.83 -42.37,133.03 -48.87,202.47 -7.17,53.41 -13.91,110.13 -75.67,108.83 -61.07,-1.29 -74.18,-55.03 -67.17,-110.94 28.28,-225.69 79.06,-447.25 195.85,-642.95 233.55,-391.32 289.41,-804.69 180.52,-1242.45 -56.51,-227.18 -121.45,-452.28 -183.67,-678.03 -69.09,-250.67 -258.17,-380.87 -488.36,-447.15 -144.09,-41.48 -299.93,-54.36 -450.96,-57.37 -546.09,-10.89 -1092.37,-14.35 -1638.58,-15.3 -113.3,-0.2 -190.76,-36.44 -235.58,-141.52 -44.13,-103.45 10.94,-180.78 65.53,-257.59 17.06,-24.06 38.85,-44.51 63.94,-60.05 343.61,-206.54 648.87,-474.88 1021.5,-634.59 37.65,-16.14 75.09,-33.21 113.85,-46.22 244.41,-82 432.5,-242.2 601.8,-429.43 130.09,-146.85 241.75,-309.44 331.54,-483.83 83.31,-157.15 188.8,-302.67 286.7,-451.9 151.08,-230.31 290.5,-469.94 459.28,-686.61 267.49,-343.39 566.64,-659.17 949.43,-880.24 81.65,-45.74 167.46,-84.44 255.81,-115.14 406.85,-147.3 814.91,-291.22 1222.52,-436.41 24.77,-8.83 53.1,-13.11 73.41,-28.12 132.78,-98.08 284.37,-153.88 440.03,-201.31l211.56 0 -0.02 -0.01z"/>
  <path class="fil1" d="M8753.95 8576.97c180.28,-334.55 362.15,-668.26 540.24,-1003.97 106.95,-201.61 215.58,-402.91 309.61,-610.63 95.16,-210.2 173.18,-428.16 258.87,-642.65 42.32,-105.92 83.04,-212.54 128.6,-317.05 17.29,-37.26 40.24,-71.73 67.8,-102.19 102.56,-117.78 233.96,-102.14 306.69,36.09 145.8,277.12 294.24,552.96 434.25,832.99 97.44,194.87 244.19,348.9 383.59,511.25 81.87,99.57 154.14,207.46 215.34,320.76 27.06,47.69 32.2,112.15 33.47,169.28 3.52,158.35 -7.9,317.36 2.28,475.09 4.13,77.19 29.61,152.02 73.27,215.92 99.35,133.7 217.76,253.06 324.63,381.41 84.13,101.06 159.1,209.81 244.35,309.85 134.48,157.81 273.67,311.63 412.09,466.04 27.03,30.15 59.65,55.27 89.67,82.71 -218.5,54.69 -436.61,110.96 -655.56,163.78 -535.37,129.17 -1073.72,247.04 -1605.66,388.95 -279.36,74.54 -549.72,184.97 -820.73,288.17 -501.31,190.88 -1000.12,388.32 -1499.93,583.15 -37.41,14.58 -74.44,30.16 -142.65,57.87 19.26,-105.06 17.33,-193.37 51.43,-264.37 214.34,-446.4 388.26,-913.11 662.28,-1329.9 103.08,-156.79 127.57,-336.53 144.78,-518.49 14.35,-151.74 34.94,-302.89 51.54,-454.44 -1.12,-13.69 -4.6,-27.13 -10.25,-39.63l-0.01 0 0.02 0.01z"/>
  <path class="fil1" d="M5506.17 5369.11c13.49,-38.55 32.92,-76.13 39.41,-115.82 23.44,-143.33 101.17,-253.39 203.43,-350.18 247.07,-233.84 490.96,-466.46 812.39,-606.85 331.59,-146.51 676.82,-265.47 1027.49,-353.34 113.03,-27.86 221.45,-75.48 330.71,-117.39 220.76,-84.66 434.59,-68.97 647.18,31.01 83.17,35.52 168.7,67.2 255.16,93.67 13.99,3.84 28.34,5.85 42.72,5.85 6.04,0 12.09,-0.37 18.08,-1.05 226.96,-16.54 454.48,-52.59 680.59,-45.14 181.5,5.76 361.1,41.96 530.85,106.32 202.59,78.31 248.19,243.43 147.7,429.8 -24.43,45.31 -95.74,77.8 -151.53,91.4 -168.52,41.07 -325.38,104.74 -451.45,223.81 -142.59,134.69 -281.1,274.6 -411.9,420.76 -173.8,194.21 -370.59,349.42 -624.79,421.87 -61.56,17.54 -123.92,32.31 -185.92,48.35 -264.44,-220.26 -561.34,-253.66 -884.39,-161.41 -276.72,79.02 -555.52,48.66 -835.06,6.62 -120.92,-18.19 -245.22,-15.1 -368.06,-19.15 -210.29,-6.93 -421.16,-5.16 -630.64,-21.6 -65.88,-5.18 -128.09,-57.03 -191.99,-87.51l0.02 -0.02z"/>
 </g>
</svg>
