<?xml version="1.0" encoding="UTF-8"?>
<!DOCTYPE svg PUBLIC "-//W3C//DTD SVG 1.1//EN" "http://www.w3.org/Graphics/SVG/1.1/DTD/svg11.dtd">
<!-- Creator: CorelDRAW -->
<svg xmlns="http://www.w3.org/2000/svg" xml:space="preserve" width="15in" height="15in" version="1.1" style="shape-rendering:geometricPrecision; text-rendering:geometricPrecision; image-rendering:optimizeQuality; fill-rule:evenodd; clip-rule:evenodd"
viewBox="0 0 15000 15000"
 xmlns:xlink="http://www.w3.org/1999/xlink"
 xmlns:xodm="http://www.corel.com/coreldraw/odm/2003">
 <defs>
  <style type="text/css">
   <![CDATA[
    .fil0 {fill:#DE4C36;fill-rule:nonzero}
   ]]>
  </style>
 </defs>
 <g id="Layer_x0020_1">
  <metadata id="CorelCorpID_0Corel-Layer"/>
  <path class="fil0" d="M12409.55 7158.31l-4583.46 -4583.48c-265.25,-265.25 -693.09,-265.25 -955.48,0 0,0 0,0 0,0l-952.63 952.63 1206.48 1206.48c290.93,-99.82 610.37,-22.82 827.13,191.09 216.76,216.76 290.93,539.06 191.09,829.99l1163.69 1163.69c282.37,-96.98 607.52,-34.22 829.99,191.09 313.74,313.74 313.74,824.29 0,1138.03 0,0 0,0 0,0 -313.74,313.74 -824.29,313.74 -1138.03,0 -231.02,-231.02 -299.48,-576.14 -173.99,-875.62l-1083.83 -1083.83 0 2855.04c79.85,39.93 151.17,91.28 213.91,151.17 313.74,313.74 313.74,824.29 0,1138.02 0,0 0,0 0,0 -313.74,313.74 -824.29,313.74 -1138.02,0 -313.74,-313.74 -313.74,-824.29 0,-1138.02 74.15,-74.16 165.43,-134.05 262.41,-176.83l0 -2880.71c-99.82,-39.93 -188.25,-99.82 -262.41,-176.83 -236.73,-236.73 -296.63,-587.55 -173.99,-878.48l-1189.36 -1189.36 -3145.96 3143.11c-265.25,265.25 -265.25,693.08 0,955.48 0,0 0,0 0,0l4583.48 4583.48c265.25,265.25 693.08,265.25 955.48,0l4560.65 -4560.66c268.11,-265.25 268.11,-693.08 2.85,-955.48z"/>
 </g>
</svg>
