<?xml version="1.0" encoding="UTF-8"?>
<!DOCTYPE svg PUBLIC "-//W3C//DTD SVG 1.1//EN" "http://www.w3.org/Graphics/SVG/1.1/DTD/svg11.dtd">
<!-- Creator: CorelDRAW -->
<svg xmlns="http://www.w3.org/2000/svg" xml:space="preserve" width="15in" height="15in" version="1.1" style="shape-rendering:geometricPrecision; text-rendering:geometricPrecision; image-rendering:optimizeQuality; fill-rule:evenodd; clip-rule:evenodd"
viewBox="0 0 15000 15000"
 xmlns:xlink="http://www.w3.org/1999/xlink"
 xmlns:xodm="http://www.corel.com/coreldraw/odm/2003">
 <defs>
  <style type="text/css">
   <![CDATA[
    .fil4 {fill:none}
    .fil0 {fill:white;fill-opacity:0.000000}
    .fil1 {fill:#0065A9;fill-rule:nonzero}
    .fil2 {fill:#007ACC;fill-rule:nonzero}
    .fil3 {fill:#1F9CF0;fill-rule:nonzero}
   ]]>
  </style>
   <clipPath id="id0">
    <path d="M9695.72 12678.23c75.59,29.36 156.26,44.61 237.43,44.61 98.06,0 195.11,-22.2 283.44,-64.64l2161.77 -1040.24c227.1,-109.32 371.64,-339.24 371.64,-591.3 0,0 0,-0.09 0,-0.09l-0.03 -7053.21c0.03,0 0.03,-0.15 0.03,-0.15 0,-252.06 -144.54,-481.98 -371.58,-591.28l-2161.8 -1040.08c-88.39,-42.44 -185.37,-64.65 -283.47,-64.65 -173.44,0 -339.87,68.95 -462.45,191.64l-4138.45 3775.55 -1802.53 -1368.35c-75.96,-57.7 -168.88,-88.98 -264.28,-88.98 -108.73,0 -213.65,40.61 -294.07,113.75l-578.16 525.89c-91.15,82.91 -143.2,200.5 -143.2,323.78 0,122.99 51.84,240.43 142.65,323.31l1563.27 1426.17 -1563.18 1426.27c-90.78,82.87 -142.56,200.29 -142.56,323.25 0,123.24 52,240.81 143.11,323.74l578.16 525.89c80.45,73.2 185.34,113.79 294.1,113.79 95.4,0 188.26,-31.25 264.22,-88.92l1802.56 -1368.29 4138.45 3775.46c63.93,64.02 140.7,114.25 225.03,147.11l-0.09 0zm430.83 -7561.86l-3140.07 2383.57 3140.16 2383.67 0 -4767.24 -0.09 0z"/>
   </clipPath>
   <clipPath id="id1">
    <path d="M9695.72 12678.23c75.59,29.36 156.26,44.61 237.43,44.61 98.06,0 195.11,-22.2 283.44,-64.64l2161.77 -1040.24c227.1,-109.32 371.64,-339.24 371.64,-591.3 0,0 0,-0.09 0,-0.09l-0.03 -7053.21c0.03,0 0.03,-0.15 0.03,-0.15 0,-252.06 -144.54,-481.98 -371.58,-591.28l-2161.8 -1040.08c-88.39,-42.44 -185.37,-64.65 -283.47,-64.65 -173.44,0 -339.87,68.95 -462.45,191.64l-4138.45 3775.55 -1802.53 -1368.35c-75.96,-57.7 -168.88,-88.98 -264.28,-88.98 -108.73,0 -213.65,40.61 -294.07,113.75l-578.16 525.89c-91.15,82.91 -143.2,200.5 -143.2,323.78 0,122.99 51.84,240.43 142.65,323.31l1563.27 1426.17 -1563.18 1426.27c-90.78,82.87 -142.56,200.29 -142.56,323.25 0,123.24 52,240.81 143.11,323.74l578.16 525.89c80.45,73.2 185.34,113.79 294.1,113.79 95.4,0 188.26,-31.25 264.22,-88.92l1802.56 -1368.29 4138.45 3775.46c63.93,64.02 140.7,114.25 225.03,147.11l-0.09 0zm430.83 -7561.86l-3140.07 2383.57 3140.16 2383.67 0 -4767.24 -0.09 0z"/>
   </clipPath>
 </defs>
 <g id="Layer_x0020_1">
  <metadata id="CorelCorpID_0Corel-Layer"/>
  <g style="clip-path:url(#id0)">
   <polygon class="fil0" points="2250,2277.2 12750,2277.2 12750,12722.85 2250,12722.85 "/>
  </g>
  <g style="clip-path:url(#id1)">
   <g id="_2625464556352">
    <path id="_1" class="fil1" d="M12378.45 3383.63l-2163.48 -1041.79c-88.39,-42.51 -185.5,-64.7 -283.62,-64.7 -173.5,0 -339.89,69.07 -462.55,191.7l-7082.45 6457.38c-90.81,82.81 -142.68,200.26 -142.68,323.25 0,123.21 52.02,240.87 143.17,323.71l578.47 525.89c80.55,73.14 185.56,113.78 294.35,113.78 95.43,0 188.41,-31.25 264.43,-88.92l8528.84 -6470.19c286.13,-217.06 697.09,-12.96 697.09,346.16l0 -25.11c-0.06,-252 -144.54,-481.86 -371.61,-591.24l0.03 0.09z"/>
    <path class="fil2" d="M12378.45 11616.35l-2163.48 1041.63c-88.45,42.51 -185.53,64.7 -283.75,64.7 -173.43,0 -339.89,-68.98 -462.48,-191.54l-7082.39 -6457.48c-90.81,-82.84 -142.68,-200.28 -142.68,-323.28 0,-123.21 52.02,-240.87 143.17,-323.71l578.47 -525.89c80.55,-73.14 185.56,-113.78 294.35,-113.78 95.43,0 188.41,31.25 264.43,88.92l8528.84 6470.09c286.13,217.15 697.09,13.05 697.09,-346.09l0 25.11c-0.06,252.03 -144.54,481.89 -371.61,591.28l0.03 0.03z" filter="url(#b)"/>
    <path class="fil3" d="M10215.07 12658.2c-88.33,42.48 -185.5,64.61 -283.59,64.61 -173.53,0 -340.08,-69.11 -462.7,-191.73 242.17,242.17 656.26,70.63 656.26,-271.84l-0.03 -9518.73c0,-342.47 -414.09,-514.01 -656.26,-271.78 122.65,-122.59 289.2,-191.7 462.73,-191.7 98.1,0 195.26,22.14 283.59,64.64l2163.07 1040.3c227.32,109.26 371.86,339.21 371.86,591.43 0,0 0,0 0,0l0 7053.18c0,0 0,0 0,0 0,252.22 -144.54,482.17 -371.83,591.43l-2163.07 1040.24 -0.03 -0.06z" filter="url(#c)"/>
   </g>
  </g>
  <path class="fil4" d="M9695.72 12678.23c75.59,29.36 156.26,44.61 237.43,44.61 98.06,0 195.11,-22.2 283.44,-64.64l2161.77 -1040.24c227.1,-109.32 371.64,-339.24 371.64,-591.3 0,0 0,-0.09 0,-0.09l-0.03 -7053.21c0.03,0 0.03,-0.15 0.03,-0.15 0,-252.06 -144.54,-481.98 -371.58,-591.28l-2161.8 -1040.08c-88.39,-42.44 -185.37,-64.65 -283.47,-64.65 -173.44,0 -339.87,68.95 -462.45,191.64l-4138.45 3775.55 -1802.53 -1368.35c-75.96,-57.7 -168.88,-88.98 -264.28,-88.98 -108.73,0 -213.65,40.61 -294.07,113.75l-578.16 525.89c-91.15,82.91 -143.2,200.5 -143.2,323.78 0,122.99 51.84,240.43 142.65,323.31l1563.27 1426.17 -1563.18 1426.27c-90.78,82.87 -142.56,200.29 -142.56,323.25 0,123.24 52,240.81 143.11,323.74l578.16 525.89c80.45,73.2 185.34,113.79 294.1,113.79 95.4,0 188.26,-31.25 264.22,-88.92l1802.56 -1368.29 4138.45 3775.46c63.93,64.02 140.7,114.25 225.03,147.11l-0.09 0zm430.83 -7561.86l-3140.07 2383.57 3140.16 2383.67 0 -4767.24 -0.09 0z"/>
 </g>
</svg>
