<?xml version="1.0" encoding="UTF-8"?>
<!DOCTYPE svg PUBLIC "-//W3C//DTD SVG 1.1//EN" "http://www.w3.org/Graphics/SVG/1.1/DTD/svg11.dtd">
<!-- Creator: CorelDRAW -->
<svg xmlns="http://www.w3.org/2000/svg" xml:space="preserve" width="15in" height="15in" version="1.1" style="shape-rendering:geometricPrecision; text-rendering:geometricPrecision; image-rendering:optimizeQuality; fill-rule:evenodd; clip-rule:evenodd"
viewBox="0 0 15000 15000"
 xmlns:xlink="http://www.w3.org/1999/xlink"
 xmlns:xodm="http://www.corel.com/coreldraw/odm/2003">
 <defs>
  <style type="text/css">
   <![CDATA[
    .fil0 {fill:#00979C}
   ]]>
  </style>
 </defs>
 <g id="Layer_x0020_1">
  <metadata id="CorelCorpID_0Corel-Layer"/>
  <g id="_2756764586992">
   <path class="fil0" d="M2249.2 7864.06l0 -792.16c16.5,-8.26 16.5,-24.76 16.5,-41.26 247.56,-1080.95 924.17,-1732.86 1996.89,-1988.66 90.76,-24.76 189.78,-16.5 280.56,-49.52l528.12 0.03c8.27,16.5 33,8.26 49.53,8.26 528.09,57.76 1006.69,247.57 1427.53,577.62 363.08,272.3 643.65,618.88 899.44,990.2 33,49.53 49.53,49.53 82.52,0 148.54,-214.54 305.32,-420.84 486.83,-610.61 437.34,-470.33 965.43,-800.42 1609.07,-915.94 90.76,-24.76 198.04,-16.5 288.8,-49.52l511.59 0c8.27,16.5 24.76,8.26 41.26,8.26 156.78,16.5 305.32,49.53 453.83,90.76 1105.71,321.82 1889.64,1336.78 1823.61,2483.75 -49.53,965.43 -536.36,1658.57 -1386.28,2095.91 -420.84,231.04 -882.91,288.8 -1361.51,280.56 -627.11,-8.27 -1171.74,-222.8 -1642.07,-635.38 -330.06,-288.8 -585.85,-635.38 -825.15,-998.46 -33,-49.53 -49.53,-41.26 -82.52,8.26 -148.54,222.8 -305.32,445.6 -486.83,660.14 -321.82,363.08 -693.14,660.14 -1155.24,816.92 -569.35,198.04 -1146.97,206.3 -1724.59,49.53 -833.42,-239.3 -1402.77,-767.39 -1716.33,-1576.05 -49.52,-132.02 -74.26,-280.56 -115.52,-412.57l-0.06 -0.06zm2624.03 1212.97c470.34,16.5 874.68,-140.28 1221.23,-462.1 354.82,-330.06 610.61,-742.67 866.41,-1146.98 8.26,-24.76 8.26,-41.26 -8.26,-66.02 -214.54,-338.32 -437.34,-676.64 -734.4,-957.2 -569.35,-544.63 -1237.76,-726.13 -1988.66,-486.83 -618.88,206.3 -1014.96,643.64 -1105.71,1303.75 -90.76,618.88 148.55,1113.98 643.64,1485.3 330.06,239.3 701.4,338.32 1105.72,330.06l0.03 0.03zm5231.54 0c181.54,0 363.08,-8.27 536.36,-57.76 651.87,-198.04 1080.95,-602.38 1204.73,-1278.99 123.78,-668.37 -132.02,-1204.73 -693.14,-1584.31 -618.88,-429.07 -1518.29,-387.81 -2145.43,82.52 -420.84,313.56 -701.4,734.4 -981.93,1171.74 -16.5,24.76 -8.27,41.26 0,66.02 222.8,354.82 445.6,709.64 734.4,1014.96 363.08,387.81 800.42,610.61 1345.01,585.85l0 -0.03zm0 0z"/>
   <path class="fil0" d="M4864.97 7203.91c264.06,0 536.36,8.27 800.42,0 66.02,0 74.26,16.5 74.26,82.52 -8.26,74.26 -8.26,148.54 0,222.8 8.27,66.02 -8.26,82.52 -82.52,82.52l-1056.19 -0.03c-181.54,0 -363.08,-8.26 -544.62,0 -57.76,0 -74.26,-16.5 -74.26,-82.52 8.26,-74.26 8.26,-148.55 0,-231.04 0,-57.76 16.5,-74.26 74.26,-74.26 264.06,8.27 536.36,0 808.65,0zm5198.54 -528.09c66.02,0 132.02,8.27 189.77,0 41.26,0 57.76,16.5 57.76,57.76 -8.26,115.52 0,231.04 -8.26,346.59 0,57.76 16.5,74.26 74.26,74.26 107.28,-8.26 222.8,0 338.32,-8.26 49.53,0 66.02,8.26 66.02,66.02l0 379.58c0,41.26 -16.5,57.76 -57.76,57.76 -115.52,-8.27 -231.04,0 -354.81,-8.27 -49.53,0 -66.02,16.5 -66.02,66.02 8.26,115.52 0,231.04 8.26,346.59 0,49.52 -16.5,74.26 -66.02,74.26 -123.78,-8.26 -247.56,-8.26 -371.31,0 -49.52,0 -66.02,-16.5 -66.02,-66.02 8.26,-123.78 0,-239.3 8.26,-363.08 0,-41.26 -16.5,-57.76 -57.76,-57.76 -115.52,8.27 -231.04,0 -346.59,8.27 -66.02,0 -74.26,-24.76 -74.26,-74.26 0,-115.52 8.26,-231.04 0,-346.58 -8.26,-66.02 24.76,-82.52 82.52,-82.52 115.52,8.26 222.8,0 338.32,8.26 41.26,0 57.76,-16.5 57.76,-57.76 -8.26,-115.52 0,-239.3 -8.26,-354.82 0,-49.52 16.5,-66.02 66.02,-66.02 63.84,7.98 126.03,0 189.81,0z"/>
  </g>
 </g>
</svg>
