<?xml version="1.0" encoding="UTF-8"?>
<!DOCTYPE svg PUBLIC "-//W3C//DTD SVG 1.1//EN" "http://www.w3.org/Graphics/SVG/1.1/DTD/svg11.dtd">
<!-- Creator: CorelDRAW -->
<svg xmlns="http://www.w3.org/2000/svg" xml:space="preserve" width="15in" height="15in" version="1.1" style="shape-rendering:geometricPrecision; text-rendering:geometricPrecision; image-rendering:optimizeQuality; fill-rule:evenodd; clip-rule:evenodd"
viewBox="0 0 15000 15000"
 xmlns:xlink="http://www.w3.org/1999/xlink"
 xmlns:xodm="http://www.corel.com/coreldraw/odm/2003">
 <defs>
  <style type="text/css">
   <![CDATA[
    .fil7 {fill:#0066B6;fill-rule:nonzero}
    .fil4 {fill:#22B45C;fill-rule:nonzero}
    .fil8 {fill:#429ACC;fill-rule:nonzero}
    .fil9 {fill:#6CBADD;fill-rule:nonzero}
    .fil5 {fill:#91CA06;fill-rule:nonzero}
    .fil6 {fill:#D6D230;fill-rule:nonzero}
    .fil1 {fill:#FB4725;fill-rule:nonzero}
    .fil3 {fill:#FC9B3A;fill-rule:nonzero}
    .fil2 {fill:#FF7B39;fill-rule:nonzero}
    .fil0 {fill:white;fill-rule:nonzero}
   ]]>
  </style>
 </defs>
 <g id="Layer_x0020_1">
  <metadata id="CorelCorpID_0Corel-Layer"/>
  <polygon class="fil0" points="2276.4,2252.68 12776.4,2252.68 12776.4,12773.15 2276.4,12773.15 "/>
  <polygon class="fil1" points="2276.4,2252.68 5481.88,2252.68 5481.88,5458.16 2276.4,5458.16 "/>
  <polygon class="fil0" points="3610.61,4894.44 4161.31,4894.44 4161.31,3263.15 4775.82,3263.15 4775.82,2797.28 2975.1,2797.28 2975.1,3263.15 3610.61,3263.15 "/>
  <path class="fil1" d="M5484.61 5460.89l-3208.21 0 0 -3208.21 3208.21 0 0 3208.21zm-1868.54 -555.52l549.85 0 0 -1631.09 614.3 0 0 -466.08 -1800.09 0 0 466.08 635.51 0 0.42 1631.09 0.01 0z"/>
  <path class="fil2" d="M9141.69 5460.89l-3209.26 0 0 -3208.21 3209.26 0 0 3208.21zm-1329.6 -2652.69l-550.91 0 0 2097.17 550.91 0 0 -2097.17z"/>
  <path class="fil3" d="M12776.4 5460.89l-3187.74 0 0 -3208.21 3187.74 0 0 3208.21zm-2018.12 -1983.59l643.49 1427.65 733.77 0 0 -2096.75 -508.5 0 0 1441.71 -636.77 -1441.71 -740.28 0 0 2097.17 508.28 0 0 -1428.07 0.01 0z"/>
  <path class="fil4" d="M5484.61 9117.96l-3208.21 0 0 -3209.26 3208.21 0 0 3209.26zm-639.71 -2653.74l-665.53 0 -634.04 769.46 0 -769.46 -550.69 0 0 2097.38 550.69 0 0 -850.29 675.41 850.29 692.82 0 -954.63 -1112.72 885.98 -984.65 -0.01 -0.01z"/>
  <path class="fil5" d="M9141.69 9117.96l-3209.26 0 0 -3209.26 3209.26 0 0 3209.26zm-883.88 -957.99l-890.59 0 0 -466.08 826.14 0 0 -402.47 -826.14 0 0 -403.52 847.35 0 0 -423.67 -1398.25 0 0 2097.38 1440.65 0 0.84 -401.63 0 -0.02z"/>
  <path class="fil6" d="M9588.66 5908.7l0 3209.26 3187.74 0 0 -3209.26 -3187.74 0zm1951.25 2652.9l-191.68 -535.37c-86.92,-233.88 -125.97,-290.78 -307.78,-290.78l-111.06 0 0 826.15 -529.49 0 0 -2097.38 834.33 0c471.96,0 753.5,216.87 753.5,577.36 0,234.72 -125.97,410.66 -349.56,498.21 95.74,62.98 152.21,162.7 211.42,308.41l282.38 713.82 -592.05 -0.42 -0.02 0.01z"/>
  <path class="fil6" d="M11087.9 6866.69l-158.51 0 0 466.72 146.96 0c165.23,0 361.95,-41.99 361.95,-249 -0.42,-157.88 -98.46,-217.71 -350.4,-217.71l0 -0.01 0 0z"/>
  <path class="fil7" d="M5484.61 12773.15l-3208.21 0 0 -3208.21 3208.21 0 0 3208.21zm-885.56 -1032.31c-122.03,51.94 -253.65,78.89 -386.36,78.89 -5.9,0 -12.27,-0.12 -18.05,-0.12 -396.17,0 -632.78,-243.12 -632.78,-650.84 0,-389.24 258.02,-650.84 641.81,-650.84 133.94,0.59 266.62,26.61 390.94,76.15l69.29 28.97 24.14 -447.82 -40.1 -11.76c-166.67,-47.63 -339.55,-72.76 -512.91,-73.93 -661.12,0 -1141.06,453.91 -1141.06,1079.13 0,332.14 111.06,608.85 321.22,797.8 201.55,182.65 484.98,279.23 819.85,279.23 193.37,0 379.17,-31.07 522.98,-87.13l35.69 -14.07 -23.93 -435.01 -70.72 31.33 -0.02 0.02z"/>
  <polygon class="fil8" points="7267.9,11306.67 7781.43,11306.67 7528.24,10604.81 "/>
  <path class="fil8" d="M5932.42 9564.94l0 3208.21 3209.26 0 0 -3208.21 -3209.26 0zm2155.33 2652.69l-175.94 -508.5 -771.56 0 -179.09 508.5 -548.8 0 797.8 -2097.17 650.84 0 800.74 2097.17 -573.99 0z"/>
  <g id="_1739094189120">
   <path class="fil9" d="M10975.37 10522.93l-136.47 0 0 1292.23 86.08 0c427.45,0 653.56,-239.34 653.56,-674.35 0,-392.39 -214.14,-617.87 -603.18,-617.87l0.01 -0.01z"/>
   <path class="fil9" d="M9588.66 9564.94l0 3208.21 3187.74 0 0 -3208.21 -3187.74 0zm1398.88 2652.69l-699.33 0 0 -2097.17 753.08 0c712.35,0 1104.96,363 1104.96,1019.93 0,673.72 -433.12,1077.24 -1158.7,1077.24l-0.01 0z"/>
  </g>
 </g>
</svg>
