<?xml version="1.0" encoding="UTF-8"?>
<!DOCTYPE svg PUBLIC "-//W3C//DTD SVG 1.1//EN" "http://www.w3.org/Graphics/SVG/1.1/DTD/svg11.dtd">
<!-- Creator: CorelDRAW -->
<svg xmlns="http://www.w3.org/2000/svg" xml:space="preserve" width="15in" height="15in" version="1.1" style="shape-rendering:geometricPrecision; text-rendering:geometricPrecision; image-rendering:optimizeQuality; fill-rule:evenodd; clip-rule:evenodd"
viewBox="0 0 15000 15000"
 xmlns:xlink="http://www.w3.org/1999/xlink"
 xmlns:xodm="http://www.corel.com/coreldraw/odm/2003">
 <defs>
  <style type="text/css">
   <![CDATA[
    .fil1 {fill:#004482;fill-rule:nonzero}
    .fil0 {fill:#00599C;fill-rule:nonzero}
    .fil2 {fill:#659AD2;fill-rule:nonzero}
    .fil3 {fill:white;fill-rule:nonzero}
   ]]>
  </style>
 </defs>
 <g id="Layer_x0020_1">
  <metadata id="CorelCorpID_0Corel-Layer"/>
  <path class="fil0" d="M12610.92 10452.94c82.32,-142.72 133.29,-303.35 133.29,-447.93l-0.04 -5012.61c0,-144.09 -50.86,-304.93 -133.29,-447.65l-5116.5 2954.1 5116.54 2954.09zm0 0z"/>
  <path class="fil1" d="M7948.92 13298.46l4340.78 -2505.89c125.04,-72.22 238.82,-196.91 321.22,-339.64l-5116.5 -2954.09 -5117.02 2954.09c82.32,142.73 196.17,267.28 321.21,339.64l4340.78 2505.89c250.01,144.48 659.45,144.48 909.36,0l0.17 0 0 0zm0 0z"/>
  <path class="fil2" d="M12610.92 4544.85c-82.39,-142.97 -196.18,-267.66 -321.22,-339.53l-4340.89 -2506.24c-250.01,-144.54 -659.35,-144.54 -909.35,0l-4340.78 2506.24c-250.08,144.13 -454.47,498.52 -454.47,787.08l0 5012.54c0,144.48 50.86,305.2 133.29,447.93l5116.85 -2954.03 5116.57 -2954 -0 0.02zm0 0z"/>
  <path class="fil3" d="M7494.35 3998.62c-1929.98,0 -3500.05,1570.17 -3500.05,3500.15 0,1929.98 1570.1,3500.15 3500.05,3500.15 1245.35,0 2406.92,-670.26 3030.86,-1748.98l-1514.52 -876.6c-312.61,540.15 -893.45,875.41 -1516.34,875.41 -964.94,0 -1750.06,-785.05 -1750.06,-1750.06 0,-965.04 785.22,-1750.06 1750.06,-1750.06 622.43,0 1203.93,335.65 1515.88,875.41l1514.98 -876.53c-624.28,-1078.79 -1785.5,-1748.98 -3030.86,-1748.98l0 0.07 -0 0.02zm2722.41 2916.63l0 389.1 -389.1 0 0 388.72 389.1 0.04 0 389.1 388.71 0 0 -389.1 388.75 0 0 -388.72 -388.75 -0.04 0 -389.1 -388.71 0zm1458.17 0l0 389.1 -388.82 0 0 388.72 388.82 0.04 0 389.1 389.1 0 0 -389.1 388.71 0 0 -388.72 -388.71 -0.04 0 -389.1 -389.1 0z"/>
 </g>
</svg>
