<?xml version="1.0" encoding="UTF-8"?>
<!DOCTYPE svg PUBLIC "-//W3C//DTD SVG 1.1//EN" "http://www.w3.org/Graphics/SVG/1.1/DTD/svg11.dtd">
<!-- Creator: CorelDRAW -->
<svg xmlns="http://www.w3.org/2000/svg" xml:space="preserve" width="15in" height="15in" version="1.1" style="shape-rendering:geometricPrecision; text-rendering:geometricPrecision; image-rendering:optimizeQuality; fill-rule:evenodd; clip-rule:evenodd"
viewBox="0 0 15000 15000"
 xmlns:xlink="http://www.w3.org/1999/xlink"
 xmlns:xodm="http://www.corel.com/coreldraw/odm/2003">
 <defs>
  <style type="text/css">
   <![CDATA[
    .fil0 {fill:#1572B6;fill-rule:nonzero}
    .fil1 {fill:#33A9DC;fill-rule:nonzero}
    .fil3 {fill:#EBEBEB;fill-rule:nonzero}
    .fil2 {fill:white;fill-rule:nonzero}
   ]]>
  </style>
 </defs>
 <g id="Layer_x0020_1">
  <metadata id="CorelCorpID_0Corel-Layer"/>
  <polygon class="fil0" points="3205.52,12263.64 2250,1545.93 12750,1545.93 11793.51,12262.02 7493.64,13454.12 3205.56,12263.64 "/>
  <polygon class="fil1" points="7500.11,12542.96 10974.67,11579.64 11792.11,2422.17 7500.11,2422.17 "/>
  <polygon class="fil2" points="7500.11,6305.22 9239.52,6305.22 9359.64,4959.17 7500.11,4959.17 7500.11,3644.69 10796.25,3644.69 10764.71,3997.39 10441.57,7619.73 7500.11,7619.73 "/>
  <polygon class="fil3" points="7507.9,9719.07 7502.12,9720.79 6038.21,9325.52 5944.61,8277.15 4625.24,8277.11 4809.34,10341.1 7501.91,11088.39 7507.9,11086.67 7507.9,9719.03 "/>
  <polygon class="fil2" points="9127.74,7564.12 8969.4,9324.44 7503.3,9720.18 7503.3,11087.82 10198.06,10341 10217.82,10118.9 10446.49,7564.12 "/>
  <path class="fil3" d="M7504.56 3644.69l0 1314.51 -3175.09 -0.04 -26.33 -295.37 -59.88 -666.43 -31.47 -352.7 3292.76 0.04 0.01 -0.01zm-4.46 2660.74l0 1314.51 -1445.48 -0.04 -26.33 -295.37 -59.99 -666.43 -31.36 -352.7 1563.15 0.04 0.01 -0.01z"/>
 </g>
</svg>
