<?xml version="1.0" encoding="UTF-8"?>
<!DOCTYPE svg PUBLIC "-//W3C//DTD SVG 1.1//EN" "http://www.w3.org/Graphics/SVG/1.1/DTD/svg11.dtd">
<!-- Creator: CorelDRAW -->
<svg xmlns="http://www.w3.org/2000/svg" xml:space="preserve" width="15in" height="15in" version="1.1" style="shape-rendering:geometricPrecision; text-rendering:geometricPrecision; image-rendering:optimizeQuality; fill-rule:evenodd; clip-rule:evenodd"
viewBox="0 0 15000 15000"
 xmlns:xlink="http://www.w3.org/1999/xlink"
 xmlns:xodm="http://www.corel.com/coreldraw/odm/2003">
 <defs>
  <style type="text/css">
   <![CDATA[
    .str0 {stroke:white;stroke-width:6.94;stroke-miterlimit:2.61313}
    .fil2 {fill:white}
    .fil0 {fill:#CDB54A;fill-rule:nonzero}
    .fil1 {fill:#FAD754;fill-rule:nonzero}
   ]]>
  </style>
 </defs>
 <g id="svg4525">
  <metadata id="CorelCorpID_0Corel-Layer"/>
  <path class="fil0" d="M7152.66 4270.88l-918.84 0 -10.81 4839.22 -1783.63 -486.44 3.6 1106.21 2709.68 731.47 0 -6190.46 0 0 0 0 0 0zm3419.53 6900.31l717.06 -8085.79 -3783.46 0 28.82 8918.15 3037.58 -832.36 0 0 0 0 0 0zm-6835.45 515.27l-857.58 -9440.63 9238.85 3.6 -850.38 9429.82 -3776.25 1066.57 -3754.64 -1059.37 0 0.01z"/>
  <path class="fil1" d="M10377.61 9812.75l248.63 -3023.16 -1837.68 205.39 0 -1614.28 1960.2 -7.21 79.27 -1102.61 -2958.31 14.42 39.64 4014.07 1787.23 -306.28 -25.22 893.61 -1801.65 479.24 18.02 1095.4 2489.87 -648.59 0 0 0 0 0 -0zm-2871.83 -6730.96l3783.46 0 -717.05 8085.8 -3066.41 832.36 0 -8918.16 0 0 0 0 0 0z"/>
  <polygon class="fil2 str0" points="7152.66,10461.34 7152.66,4270.88 6233.82,4270.88 6223.01,9110.1 4439.38,8623.66 4442.98,9729.87 "/>
  <polygon class="fil2 str0" points="9671.37,8886.7 7869.72,9365.94 7887.74,10461.34 10377.61,9812.75 10626.24,6789.59 8788.56,6994.98 8788.56,5380.7 10748.76,5373.49 10828.03,4270.88 7869.72,4285.3 7909.36,8299.37 9696.59,7993.09 "/>
 </g>
</svg>
