<?xml version="1.0" encoding="UTF-8"?>
<!DOCTYPE svg PUBLIC "-//W3C//DTD SVG 1.1//EN" "http://www.w3.org/Graphics/SVG/1.1/DTD/svg11.dtd">
<!-- Creator: CorelDRAW -->
<svg xmlns="http://www.w3.org/2000/svg" xml:space="preserve" width="15in" height="15in" version="1.1" style="shape-rendering:geometricPrecision; text-rendering:geometricPrecision; image-rendering:optimizeQuality; fill-rule:evenodd; clip-rule:evenodd"
viewBox="0 0 15000 15000"
 xmlns:xlink="http://www.w3.org/1999/xlink"
 xmlns:xodm="http://www.corel.com/coreldraw/odm/2003">
 <defs>
  <style type="text/css">
   <![CDATA[
    .fil0 {fill:#5382A1;fill-rule:nonzero}
    .fil1 {fill:#E76F00;fill-rule:nonzero}
   ]]>
  </style>
 </defs>
 <g id="Layer_x0020_1">
  <metadata id="CorelCorpID_0Corel-Layer"/>
  <g>
   <path class="fil0" d="M6111.47 10374.81c0,0 -401.23,233.33 285.56,312.28 832.05,94.91 1257.28,81.32 2174.2,-92.24 0,0 241.08,151.15 577.71,282.09 -2055.45,880.93 -4651.96,-51.04 -3037.48,-502.14l0 0zm-251.17 -1149.59c0,0 -450.03,333.13 237.28,404.22 888.81,91.69 1590.71,99.2 2805.3,-134.68 0,0 168,170.31 432.15,263.46 -2485.21,726.71 -5253.27,57.31 -3474.74,-532.99l0 0zm0 0l0 0 0 0z"/>
  </g>
  <g>
   <path class="fil1" d="M7977.74 7275.16c506.48,583.09 -133.06,1107.82 -133.06,1107.82 0,0 1286,-663.87 695.39,-1495.22 -551.6,-775.23 -974.63,-1160.47 1315.4,-2488.58 0,0 -3594.58,897.75 -1877.73,2875.96l0 0.03zm0 0l0 0 0 0z"/>
  </g>
  <g>
   <path class="fil0" d="M10696.28 11225.1c0,0 296.93,244.64 -327.02,433.92 -1186.44,359.43 -4938.13,467.96 -5980.35,14.32 -374.63,-162.95 327.94,-389.13 548.93,-436.62 230.47,-49.98 362.2,-40.65 362.2,-40.65 -416.65,-293.52 -2693.03,576.32 -1156.28,825.39 4190.9,679.65 7639.58,-306.02 6552.52,-796.36l0 0zm-4391.88 -3190.97c0,0 -1908.31,453.28 -675.76,617.84 520.41,69.68 1557.85,53.93 2524.22,-27.06 789.76,-66.58 1582.78,-208.25 1582.78,-208.25 0,0 -278.47,119.26 -479.94,256.83 -1937.89,509.68 -5681.56,272.58 -4603.81,-248.78 911.46,-440.57 1652.55,-390.59 1652.55,-390.59l-0.03 0zm3423.36 1913.51c1970,-1023.67 1059.15,-2007.39 423.4,-1874.84 -155.83,32.41 -225.3,60.5 -225.3,60.5 0,0 57.85,-90.6 168.33,-129.81 1257.7,-442.19 2224.97,1304.12 -406.01,1995.75 0,0.03 30.49,-27.21 39.58,-51.59l0 0zm0 0l0 0 0 0z"/>
  </g>
  <g>
   <path class="fil1" d="M8540.07 2254.58c0,0 1091.01,1091.4 -1034.76,2769.58 -1704.63,1346.23 -388.71,2113.8 -0.7,2990.78 -995.03,-897.75 -1725.27,-1688.06 -1235.35,-2423.58 719.02,-1079.76 2711,-1603.24 2270.82,-3336.81l0 0.03zm0 0l0 0 0 0z"/>
  </g>
  <g>
   <path class="fil0" d="M6497.99 12721.54c1890.92,121.06 4794.63,-67.16 4863.4,-961.9 0,0 -132.19,339.22 -1562.74,608.57 -1613.94,303.71 -3604.49,268.26 -4785.12,73.6 0.03,0 241.69,200.04 1484.49,279.72l-0.03 0zm0 0l0 0 0 0z"/>
  </g>
 </g>
</svg>
