<?xml version="1.0" encoding="UTF-8"?>
<!DOCTYPE svg PUBLIC "-//W3C//DTD SVG 1.1//EN" "http://www.w3.org/Graphics/SVG/1.1/DTD/svg11.dtd">
<!-- Creator: CorelDRAW -->
<svg xmlns="http://www.w3.org/2000/svg" xml:space="preserve" width="15in" height="15in" version="1.1" style="shape-rendering:geometricPrecision; text-rendering:geometricPrecision; image-rendering:optimizeQuality; fill-rule:evenodd; clip-rule:evenodd"
viewBox="0 0 15000 15000"
 xmlns:xlink="http://www.w3.org/1999/xlink"
 xmlns:xodm="http://www.corel.com/coreldraw/odm/2003">
 <defs>
  <style type="text/css">
   <![CDATA[
    .fil0 {fill:#C74634;fill-rule:nonzero}
   ]]>
  </style>
 </defs>
 <g id="Layer_x0020_1">
  <metadata id="CorelCorpID_0Corel-Layer"/>
  <path class="fil0" d="M5560.21 10810.21c-1840.48,0 -3310.21,-1469.74 -3310.21,-3310.21 0,-1840.48 1469.74,-3310.21 3310.21,-3310.21l3879.57 0c1840.48,0 3310.21,1469.74 3310.21,3310.21 0,1840.48 -1469.74,3310.21 -3310.21,3310.21l-3879.57 0zm3780.26 -1171.81c1204.91,0 2138.4,-969.89 2138.4,-2138.4 0,-1204.91 -969.89,-2138.4 -2138.4,-2138.4l-3680.95 0c-1204.91,0 -2138.4,969.89 -2138.4,2138.4 0,1168.51 969.89,2138.4 2138.4,2138.4l3680.95 0z"/>
 </g>
</svg>
