<?xml version="1.0" encoding="UTF-8"?>
<!DOCTYPE svg PUBLIC "-//W3C//DTD SVG 1.1//EN" "http://www.w3.org/Graphics/SVG/1.1/DTD/svg11.dtd">
<!-- Creator: CorelDRAW -->
<svg xmlns="http://www.w3.org/2000/svg" xml:space="preserve" width="15in" height="15in" version="1.1" style="shape-rendering:geometricPrecision; text-rendering:geometricPrecision; image-rendering:optimizeQuality; fill-rule:evenodd; clip-rule:evenodd"
viewBox="0 0 15000 15000"
 xmlns:xlink="http://www.w3.org/1999/xlink"
 xmlns:xodm="http://www.corel.com/coreldraw/odm/2003">
 <defs>
  <style type="text/css">
   <![CDATA[
    .fil0 {fill:url(#id0)}
    .fil1 {fill:url(#id1)}
   ]]>
  </style>
  <linearGradient id="id0" gradientUnits="userSpaceOnUse" x1="-16644" y1="-18976" x2="206493" y2="314185">
   <stop offset="0" style="stop-opacity:1; stop-color:#CBCED0"/>
   <stop offset="1" style="stop-opacity:1; stop-color:#84838B"/>
  </linearGradient>
  <linearGradient id="id1" gradientUnits="userSpaceOnUse" x1="118213" y1="53756" x2="305879" y2="237665">
   <stop offset="0" style="stop-opacity:1; stop-color:#276DC3"/>
   <stop offset="1" style="stop-opacity:1; stop-color:#165CAA"/>
  </linearGradient>
 </defs>
 <g id="Layer_x0020_1">
  <metadata id="CorelCorpID_0Corel-Layer"/>
  <path class="fil0" d="M7500 10484.18c-2899.49,0 -5250,-1574.2 -5250,-3516.1 0,-1941.84 2350.54,-3516.1 5250,-3516.1 2899.46,0 5250,1574.2 5250,3516.1 0,1941.84 -2350.54,3516.1 -5250,3516.1zm803.59 -5657.45c-2203.86,0 -3990.5,1076.18 -3990.5,2403.77 0,1327.53 1786.64,2403.77 3990.5,2403.77 2203.85,0 3830.3,-735.81 3830.3,-2403.77 0,-1667.46 -1626.44,-2403.77 -3830.3,-2403.77z"/>
  <path class="fil1" d="M10245.5 8897.12c0,0 317.79,95.89 502.36,189.34 63.99,32.4 174.89,97.04 254.79,182.02 46.88,49.61 86.25,106.16 116.51,167.3l1252.28 2111.5 -2024.04 0.8 -946.39 -1777.3c0,0 -193.84,-333.04 -313.11,-429.59 -99.49,-80.55 -141.91,-109.2 -240.28,-109.2l-480.87 0.06 0.34 2314.85 -1790.98 0.74 -0.03 -5913.15 3596.59 0c0,0 1638.16,29.55 1638.16,1588.06 0,1558.51 -1565.33,1674.5 -1565.33,1674.5l0 0.06 0 0.02zm-779.04 -1979.98l-1084.3 -0.74 -0.5 1005.55 1084.8 -0.4c0,0 502.36,-1.55 502.36,-511.47 0,-520.09 -502.36,-492.93 -502.36,-492.93l0 -0.01z"/>
 </g>
</svg>
